<?xml version="1.0" encoding="utf-8"?>
<!-- Generator: Adobe Illustrator 17.0.0, SVG Export Plug-In . SVG Version: 6.00 Build 0)  -->
<!DOCTYPE svg PUBLIC "-//W3C//DTD SVG 1.1//EN" "http://www.w3.org/Graphics/SVG/1.1/DTD/svg11.dtd">
<svg version="1.1" id="Layer_1" xmlns="http://www.w3.org/2000/svg" xmlns:xlink="http://www.w3.org/1999/xlink" x="0px" y="0px"
	 width="225px" height="345px" viewBox="0 0 225 345" enable-background="new 0 0 225 345" xml:space="preserve">
<g>
	<ellipse opacity="0.1" enable-background="new    " cx="114.055" cy="330.186" rx="108.929" ry="12.069"/>
	<g>
		<g>
			<g>
				<polygon fill="#563627" points="84.653,304.85 88.693,319.572 111.983,319.572 111.983,304.85 				"/>
				<path fill="#49291D" d="M88.69,319.572h21.186c-2.555-6.517-10.577-11.276-20.083-11.276c-1.407,0-2.782,0.106-4.111,0.305
					L88.69,319.572z"/>
				<path fill="#563627" d="M113.606,328.186c0.126-0.698,0.197-1.408,0.197-2.132c0-8.683-9.381-15.722-20.954-15.722
					c-11.572,0-20.954,7.039-20.954,15.722c0,0.723,0.071,1.434,0.197,2.132H113.606z"/>
				<path fill="#49291D" d="M76.748,325.132c-0.119-0.698-0.185-1.408-0.185-2.132c0-3.751,1.654-7.192,4.405-9.894
					c-5.478,2.836-9.071,7.576-9.071,12.948c0,0.723,0.071,1.434,0.197,2.132h41.513c0.126-0.698,0.197-1.408,0.197-2.132
					c0-0.31-0.015-0.617-0.039-0.922H76.748z"/>
			</g>
			<g>
				<polygon fill="#F9060C" points="111.983,297.764 81.332,297.764 77.52,259.632 111.983,259.632 				"/>
				<path fill="#DB0515" d="M79.149,275.928c10.836,1.762,22.048,2.587,32.833,2.74v-19.036H77.52L79.149,275.928z"/>
			</g>
			<g>
				<path fill="#EAEAEA" d="M112.326,305.516h-30.63c-0.699,0-1.301-0.596-1.445-1.429l-2.053-11.907
					c-0.193-1.118,0.507-2.169,1.445-2.169h32.683c0.815,0,1.477,0.805,1.477,1.799v11.907
					C113.803,304.711,113.142,305.516,112.326,305.516z"/>
				<path fill="#D9DEE4" d="M112.326,290.011h-2.148c-0.661,4.216-4.773,16.221-30.208,12.45l0.28,1.625
					c0.144,0.833,0.746,1.429,1.445,1.429h30.631c0.815,0,1.477-0.805,1.477-1.799V291.81
					C113.803,290.817,113.142,290.011,112.326,290.011z"/>
			</g>
		</g>
		<g>
			<g>
				<polygon fill="#563627" points="150.477,304.85 146.437,319.572 123.147,319.572 123.147,304.85 				"/>
				<path fill="#49291D" d="M146.439,319.572h-21.186c2.555-6.517,10.577-11.276,20.083-11.276c1.407,0,2.781,0.106,4.111,0.305
					L146.439,319.572z"/>
				<path fill="#563627" d="M121.523,328.186c-0.126-0.698-0.197-1.408-0.197-2.132c0-8.683,9.381-15.722,20.953-15.722
					s20.954,7.039,20.954,15.722c0,0.723-0.071,1.434-0.197,2.132H121.523z"/>
				<path fill="#49291D" d="M158.382,325.132c0.119-0.698,0.185-1.408,0.185-2.132c0-3.751-1.654-7.192-4.405-9.894
					c5.479,2.836,9.071,7.576,9.071,12.948c0,0.723-0.071,1.434-0.197,2.132h-41.513c-0.126-0.698-0.197-1.408-0.197-2.132
					c0-0.31,0.015-0.617,0.039-0.922H158.382z"/>
			</g>
			<g>
				<polygon fill="#F9060C" points="123.147,297.764 153.798,297.764 157.609,259.632 123.147,259.632 				"/>
				<path fill="#DB0515" d="M155.98,275.928c-10.836,1.762-22.048,2.587-32.833,2.74v-19.036h34.462L155.98,275.928z"/>
			</g>
			<g>
				<path fill="#EAEAEA" d="M122.803,305.516h30.63c0.699,0,1.302-0.596,1.445-1.429l2.053-11.907
					c0.193-1.118-0.508-2.169-1.445-2.169h-32.683c-0.815,0-1.477,0.805-1.477,1.799v11.907
					C121.326,304.711,121.988,305.516,122.803,305.516z"/>
				<path fill="#D9DEE4" d="M122.803,290.011h2.148c0.661,4.216,4.773,16.221,30.208,12.45l-0.28,1.625
					c-0.144,0.833-0.747,1.429-1.445,1.429h-30.63c-0.816,0-1.477-0.805-1.477-1.799V291.81
					C121.326,290.817,121.988,290.011,122.803,290.011z"/>
			</g>
		</g>
		<g>
			<g>
				<path fill="#B88A44" d="M68.05,121.718c0,0-35.924-2.987-45.611,26.19s9.194,58.98,2.964,76.764
					c-6.231,17.784-24.504,60.004,59.182,60.008c71.434,0.003,60.667-66.43,52.669-108.271
					C129.256,134.568,124.758,126.02,68.05,121.718z"/>
				<path fill="#A57330" d="M130.894,150.419c-9.529-4.727-24.101-6.953-47.781-8.528c0,0-35.924-2.618-45.611,22.958
					s6.179,31.958-1.043,60.872c-3.906,15.638-19.354,55.589,53.651,58.809c65.326-3.38,54.93-67.395,47.145-108.122
					C135.215,165.74,133.401,157.24,130.894,150.419z"/>
			</g>
			<path fill="#DB0515" d="M78.166,137.774c0,0-38.105,30.121-41.44,50.535l27.048,8.734l20.879-57.381L78.166,137.774z"/>
			<g>
				<path fill="#FFC3B5" d="M181.468,211.175c-1.253,1.815-6.625,16.736-0.816,18.223c3.898,0.998,4.368-3.999,4.368-3.999
					s-0.062,20.415,14.722,20.145c14.784-0.271,14.954-25.897,2.976-39.648L181.468,211.175z"/>
				<g>
					<path fill="#F9060C" d="M144.183,137.774c-1.718,0-2.846,0.104-3.198,0.141l2.246,25.901l-0.115,0.011
						c0.074-0.007,7.348-0.56,14.935,3.454c9.66,5.111,15.808,15.564,18.272,31.068c1.124,7.076,7.215,11.807,13.604,10.557
						c6.389-1.246,10.657-7.992,9.532-15.069c-4.941-31.087-20.471-44.742-32.628-50.722
						C157.453,138.501,148.742,137.774,144.183,137.774z"/>
					<path fill="#DB0515" d="M189.929,208.906c-3.562,0.697-7.029-0.468-9.596-2.859l3.474-5.033c0,0,13.067-12.195,0-35.318
						c-11.002-19.468-29.228-6.143-34.716-1.444c-3.498-0.608-5.931-0.428-5.973-0.424l0.115-0.011l-2.247-25.901
						c0.352-0.037,1.48-0.141,3.198-0.141c4.559,0,13.269,0.727,22.649,5.341c12.157,5.98,27.688,19.635,32.628,50.722
						C200.586,200.914,196.317,207.66,189.929,208.906z"/>
				</g>
				<g>
					<path fill="#EAEAEA" d="M203.827,207.363l-24.324,6.15c-1.692,0.428-3.426-0.606-3.854-2.298l-2.813-11.125
						c-0.428-1.692,0.606-3.426,2.298-3.854l24.324-6.15c1.692-0.428,3.426,0.606,3.854,2.298l2.813,11.125
						C206.552,205.202,205.518,206.936,203.827,207.363z"/>
					<path fill="#E0DFE3" d="M199.644,190.04l-0.615,0.156c2.219,4.757,4.303,16.1-23.809,19.325l0.475,1.88
						c0.402,1.59,2.031,2.562,3.621,2.16l24.695-6.243c1.59-0.402,2.561-2.031,2.16-3.621l-2.906-11.496
						C202.863,190.61,201.234,189.638,199.644,190.04z"/>
				</g>
			</g>
			<g>
				<path fill="#F9060C" d="M91.029,125.944c0,0-50.459,64.414-31.079,122.943c0,0,63.675,20.316,117.06-1.981
					c0,0,16.735-56.288-33.654-120.962C143.356,125.944,91.029,125.944,91.029,125.944z"/>
				<path fill="#DB0515" d="M143.355,125.944h-2.863c2.68,1.621,3.927,3.498,3.927,3.498s69.503,115.087-87.216,108.901
					c0.685,3.526,1.587,7.045,2.746,10.544c0,0,63.675,20.317,117.06-1.981C177.009,246.906,193.744,190.618,143.355,125.944z"/>
				<rect x="107.123" y="125.944" fill="#EAEAEA" width="21.249" height="130.89"/>
				<path fill="#D9DEE4" d="M128.372,235.431c0,0-1.663,13.777-16.046,15.267c0,0,12.489,1.961,16.046,0.238V235.431z"/>
				<g>
					<path fill="#EAEAEA" d="M56.452,241.306c0,0,69.53,20.199,123.045,0c0,0,3.183,14.569-2.433,21.617
						s-72.452,16.444-118.563,1.409C58.5,264.332,51.978,256.266,56.452,241.306z"/>
					<path fill="#D9DEE4" d="M179.497,241.305c-2.224,0.839-4.476,1.602-6.749,2.307c-4.952,12.048-26.468,31.5-117.65,11.246
						c0.773,6.213,3.403,9.474,3.403,9.474c46.111,15.035,112.947,5.638,118.563-1.409
						C182.68,255.875,179.497,241.305,179.497,241.305z"/>
				</g>
				<g>
					<g>
						<path fill="#563627" d="M56.376,204.57c0,0,66.619,19.571,122.209-0.628c0,0,6.617,14.569,0.783,21.617
							s-75.951,16.19-123.851,1.155C55.518,226.714,51.729,219.531,56.376,204.57z"/>
						<path fill="#49291D" d="M54.069,217.918c-0.064,5.908,1.448,8.797,1.448,8.797c47.9,15.035,118.016,5.892,123.85-1.155
							c1.815-2.192,2.424-5.112,2.403-8.095C165.806,224.405,105.302,233.365,54.069,217.918z"/>
					</g>
					<g>
						<path fill="#FFAA00" d="M141.561,235.446c-11.596,3.68-27.472,3.161-44.87,0v-26.781c16.797,2.548,32.305,2.743,44.87,0
							V235.446z"/>
						<path fill="#FFCE00" d="M141.561,236.934c-11.596,3.68-27.472,3.161-44.87,0v-26.781c16.797,2.548,32.305,2.743,44.87,0
							V236.934z"/>
						<path fill="#FFAA00" d="M96.691,232.637v4.751c17.398,3.161,33.273,3.68,44.87,0V223.58
							C135.356,229.526,122.659,234.995,96.691,232.637z"/>
						<path fill="#563627" d="M137.254,233.51c-9.37,2.639-22.198,2.267-36.256,0v-19.207c13.573,1.827,26.103,1.967,36.256,0
							V233.51z"/>
						<path fill="#49291D" d="M100.998,231.646v1.864c14.058,2.267,26.886,2.639,36.256,0v-1.864
							C127.884,234.285,115.056,233.912,100.998,231.646z"/>
					</g>
				</g>
			</g>
			<g>
				<g>
					<g>
						<circle fill="#FFC3B5" cx="163.892" cy="95.095" r="12.25"/>
						<circle fill="#F2B0A2" cx="163.892" cy="95.095" r="6.211"/>
					</g>
					<g>
						<circle fill="#FFC3B5" cx="71.333" cy="95.095" r="12.25"/>
						<circle fill="#F2B0A2" cx="71.333" cy="95.095" r="6.211"/>
					</g>
					<circle fill="#FFC3B5" cx="117.167" cy="91.946" r="45.835"/>
				</g>
				<g>
					<ellipse fill="#FFFFFF" cx="100.22" cy="90.192" rx="7.957" ry="10.547"/>
					<path fill="#563627" d="M105.648,93.826c-0.408,0-0.785-0.269-0.902-0.681c-1.108-3.87-2.053-3.936-2.092-3.937
						c-0.003,0-0.006,0-0.008,0c-0.707,0-1.944,2.095-2.58,3.979c-0.166,0.491-0.7,0.756-1.19,0.59
						c-0.492-0.166-0.756-0.698-0.59-1.19c0.417-1.239,1.958-5.258,4.362-5.258c0.017,0,0.033,0,0.05,0
						c2.11,0.048,3.211,3.047,3.855,5.298c0.143,0.499-0.145,1.019-0.644,1.162C105.821,93.814,105.734,93.826,105.648,93.826z"/>
				</g>
				<g>
					<ellipse fill="#FFFFFF" cx="134.033" cy="90.191" rx="7.956" ry="10.548"/>
					<path fill="#563627" d="M129.971,93.826c0.408,0,0.785-0.269,0.902-0.681c1.109-3.87,2.053-3.936,2.092-3.937
						c0.003,0,0.006,0,0.008,0c0.708,0,1.944,2.095,2.58,3.979c0.166,0.491,0.7,0.756,1.19,0.59c0.492-0.166,0.756-0.698,0.59-1.19
						c-0.417-1.239-1.958-5.258-4.363-5.258c-0.017,0-0.033,0-0.049,0c-2.11,0.048-3.211,3.047-3.855,5.298
						c-0.143,0.499,0.145,1.019,0.644,1.162C129.798,93.814,129.885,93.826,129.971,93.826z"/>
				</g>
				<ellipse fill="#FF765F" cx="88.779" cy="101.886" rx="4.816" ry="1.864"/>
				<ellipse fill="#FF765F" cx="145.016" cy="101.886" rx="4.816" ry="1.864"/>
				<g>
					<g>
						<g>
							<g>
								<path fill="#F6EEE1" d="M163.334,114.433l0.558-27.976L150.43,102.95c-7.252,0-13.132,6.304-13.132,14.08
									s5.879,14.08,13.132,14.08c7.252,0,13.131-6.304,13.131-14.08C163.561,116.142,163.481,115.275,163.334,114.433
									L163.334,114.433z"/>
								<path fill="#EADDCA" d="M163.892,86.457l-3.945,25.456c0.146,0.842,0.227,1.709,0.227,2.597
									c0,7.776-5.879,14.08-13.132,14.08c-2.035,0-3.963-0.497-5.682-1.383c2.358,2.416,5.551,3.903,9.069,3.903
									c7.252,0,13.131-6.304,13.131-14.08c0-0.888-0.08-1.755-0.227-2.597L163.892,86.457z"/>
							</g>
							<g>
								<ellipse fill="#F6EEE1" cx="146.154" cy="133.351" rx="11.075" ry="11.875"/>
								<path fill="#EADDCA" d="M152.979,124.003c0.726,1.581,1.136,3.358,1.136,5.239c0,6.559-4.959,11.875-11.075,11.875
									c-2.576,0-4.945-0.946-6.826-2.527c1.806,3.93,5.577,6.636,9.94,6.636c6.117,0,11.075-5.317,11.075-11.875
									C157.229,129.555,155.565,126.177,152.979,124.003z"/>
							</g>
							<g>
								<path fill="#F6EEE1" d="M70.919,114.433l-0.558-27.976l13.463,16.493c7.252,0,13.131,6.304,13.131,14.08
									s-5.879,14.08-13.131,14.08s-13.131-6.304-13.131-14.08C70.692,116.142,70.772,115.275,70.919,114.433L70.919,114.433z"/>
								<path fill="#EADDCA" d="M70.361,86.457l3.945,25.456c-0.146,0.842-0.227,1.709-0.227,2.597
									c0,7.776,5.879,14.08,13.131,14.08c2.035,0,3.963-0.497,5.682-1.383c-2.358,2.416-5.55,3.903-9.069,3.903
									c-7.252,0-13.131-6.304-13.131-14.08c0-0.888,0.08-1.755,0.227-2.597L70.361,86.457z"/>
							</g>
							<g>
								<ellipse fill="#F6EEE1" cx="88.099" cy="133.351" rx="11.075" ry="11.875"/>
								<path fill="#EADDCA" d="M81.274,124.003c-0.726,1.581-1.136,3.358-1.136,5.239c0,6.559,4.959,11.875,11.075,11.875
									c2.576,0,4.944-0.946,6.826-2.527c-1.806,3.93-5.577,6.636-9.94,6.636c-6.117,0-11.075-5.317-11.075-11.875
									C77.024,129.555,78.688,126.177,81.274,124.003z"/>
							</g>
							<g>
								<ellipse fill="#F6EEE1" cx="117.565" cy="133.351" rx="31.335" ry="35.037"/>
								<path fill="#EADDCA" d="M117.565,160.204c-16.067,0-29.301-13.524-31.115-30.945c-0.14,1.343-0.22,2.707-0.22,4.092
									c0,19.351,14.029,35.038,31.335,35.038c17.305,0,31.335-15.687,31.335-35.038c0-1.385-0.08-2.749-0.22-4.092
									C146.866,146.68,133.631,160.204,117.565,160.204z"/>
							</g>
						</g>
						<g>
							<ellipse fill="#D56A85" cx="117.596" cy="100.445" rx="13.751" ry="6.653"/>
							<path fill="#C45575" d="M127.608,95.887c0.654,0.682,1.022,1.442,1.022,2.244c0,2.948-4.94,5.339-11.033,5.339
								c-6.094,0-11.033-2.39-11.033-5.339c0-0.802,0.368-1.561,1.022-2.244c-2.317,1.191-3.739,2.794-3.739,4.558
								c0,3.674,6.156,6.653,13.751,6.653c7.594,0,13.751-2.979,13.751-6.653C131.347,98.681,129.925,97.078,127.608,95.887z"/>
						</g>
						<path fill="#F9060C" d="M118.661,119.265c-8.366,0-14.304-4.045-14.393-4.107c-0.425-0.297-0.529-0.882-0.233-1.308
							c0.296-0.426,0.883-0.53,1.308-0.234c0.503,0.348,12.48,8.453,26.341-0.03c0.443-0.271,1.021-0.131,1.292,0.31
							c0.272,0.443,0.132,1.021-0.31,1.292C127.676,118.244,122.861,119.265,118.661,119.265z"/>
					</g>
					<g>
						<polygon fill="#F6EEE1" points="70.384,74.254 70.361,91.946 81.559,74.254 						"/>
						<polygon fill="#EADDCA" points="70.369,74.254 70.361,91.946 74.127,74.254 						"/>
					</g>
					<g>
						<polygon fill="#F6EEE1" points="163.869,74.254 163.892,91.946 152.694,74.254 						"/>
						<polygon fill="#EADDCA" points="163.884,74.254 163.892,91.946 160.126,74.254 						"/>
					</g>
				</g>
				<g>
					<g>
						<path fill="#E50516" d="M100.437,8.818L37.758,60.514c-1.349,0.75-1.826,2.458-1.061,3.8l0,0
							c0.539,0.944,1.579,1.487,2.662,1.388l78.662-7.177c1.539-0.14,2.667-1.512,2.507-3.049l-2.494-37.566
							C116.638,1.202,102.177,7.85,100.437,8.818z"/>
						<path fill="#C60A21" d="M37.758,60.514l10.591-8.735c1.001,0.883,2.471,2.797,3.089,4.629c1.309,3.884,0,5.482,0,5.482
							L64,63.454l-24.642,2.248c-1.083,0.099-2.123-0.444-2.662-1.388C35.932,62.973,36.409,61.265,37.758,60.514z"/>
					</g>
					<g>
						<path fill="#F9060C" d="M70.368,64.631c-0.021-0.897-0.017-1.8,0.043-2.712c1.533-23.6,20.854-58.689,46.938-58.689
							s44.595,35.324,47.519,58.688c0.114,0.912,0.167,1.814,0.191,2.712L70.368,64.631L70.368,64.631z"/>
						<path fill="#DB0515" d="M70.41,61.918c0.594-9.151,3.874-20.026,9.175-29.917l0.135,1.929c0,0-2.847,18.226,45.012,17.849
							c0,0,30.485,0.02,36.041-5.707c0.067-0.069,0.125-0.149,0.185-0.225c1.954,5.595,3.287,11.104,3.909,16.072
							c0.114,0.912,0.167,1.814,0.191,2.712h-94.69C70.347,63.733,70.351,62.831,70.41,61.918z"/>
					</g>
					<g>
						<ellipse fill="#EAEAEA" cx="37.01" cy="65.408" rx="10.377" ry="9.903"/>
						<path fill="#E0DFE3" d="M37.01,55.505c0.248,0,0.493,0.011,0.737,0.028c-3.539,1.018-6.118,4.151-6.118,7.861
							c0,4.534,3.852,8.21,8.603,8.21c2.633,0,4.989-1.13,6.567-2.909c-1.42,3.854-5.266,6.617-9.79,6.617
							c-5.731,0-10.377-4.434-10.377-9.903C26.633,59.939,31.279,55.505,37.01,55.505z"/>
					</g>
					<g>
						<path fill="#EAEAEA" d="M70.626,75.136h92.755c1.853,0,3.369-1.516,3.369-3.369V59.76c0-1.853-1.516-3.369-3.369-3.369H70.626
							c-1.853,0-3.369,1.516-3.369,3.369v12.007C67.256,73.62,68.773,75.136,70.626,75.136z"/>
						<path fill="#E0DFE3" d="M70.422,56.391h2.87c6.264,5.975,28.231,19.727,93.457,11.895v3.685c0,1.741-1.425,3.166-3.166,3.166
							H70.422c-1.741,0-3.166-1.425-3.166-3.166V59.557C67.257,57.815,68.681,56.391,70.422,56.391z"/>
					</g>
				</g>
				<g>
					<path fill="#F6EEE1" d="M107.455,72.817c0.123-0.545-0.197-1.106-0.761-1.307c-4.484-1.596-8.845-1.997-13.03-1.177
						C89,71.247,85.553,73.515,83.329,75.46c-0.477,0.417-0.515,1.1-0.093,1.565l2.963,3.263c0.466,0.513,1.304,0.558,1.822,0.09
						c1.487-1.346,3.923-3.046,7.211-3.67c2.966-0.564,6.174-0.165,9.578,1.161c0.716,0.279,1.532-0.125,1.69-0.825L107.455,72.817z
						"/>
					<path fill="#EADDCA" d="M105.833,75.676c-3.404-1.326-6.612-1.725-9.578-1.161c-3.289,0.624-5.724,2.324-7.211,3.67
						c-0.518,0.469-1.356,0.423-1.822-0.09l-2.963-3.263c-0.027-0.03-0.035-0.066-0.059-0.097c-0.308,0.244-0.6,0.487-0.871,0.725
						c-0.477,0.417-0.515,1.1-0.093,1.565l2.963,3.263c0.465,0.513,1.304,0.558,1.822,0.09c1.487-1.346,3.923-3.046,7.211-3.67
						c2.966-0.564,6.174-0.165,9.578,1.161c0.716,0.279,1.532-0.125,1.69-0.825l0.313-1.386
						C106.514,75.783,106.164,75.805,105.833,75.676z"/>
				</g>
				<g>
					<path fill="#F6EEE1" d="M125.713,72.817c-0.123-0.545,0.197-1.106,0.761-1.307c4.484-1.596,8.845-1.997,13.03-1.177
						c4.664,0.914,8.111,3.182,10.335,5.127c0.477,0.417,0.515,1.1,0.093,1.565l-2.963,3.263c-0.466,0.513-1.304,0.558-1.822,0.09
						c-1.487-1.346-3.923-3.046-7.211-3.67c-2.966-0.564-6.174-0.165-9.578,1.161c-0.716,0.279-1.532-0.125-1.69-0.825
						L125.713,72.817z"/>
					<path fill="#EADDCA" d="M149.84,75.461c-0.272-0.238-0.563-0.48-0.871-0.725c-0.023,0.031-0.032,0.067-0.059,0.097
						l-2.963,3.263c-0.465,0.513-1.304,0.558-1.822,0.09c-1.487-1.346-3.923-3.046-7.211-3.67c-2.966-0.564-6.174-0.165-9.578,1.161
						c-0.331,0.129-0.681,0.107-0.98-0.018l0.313,1.386c0.158,0.7,0.974,1.104,1.69,0.825c3.404-1.326,6.612-1.725,9.578-1.161
						c3.288,0.624,5.724,2.324,7.211,3.67c0.518,0.469,1.356,0.423,1.822-0.09l2.963-3.263
						C150.355,76.561,150.317,75.878,149.84,75.461z"/>
				</g>
			</g>
			<g>
				<path fill="#F2B0A2" d="M67.774,197.082l-1.611-0.266c-1.852-0.305-3.117-2.07-2.812-3.921l1.18-7.163
					c0.305-1.852,2.07-3.117,3.921-2.812l1.611,0.266c1.852,0.305,3.117,2.07,2.812,3.921l-1.18,7.163
					C71.39,196.122,69.626,197.387,67.774,197.082z"/>
				<g>
					<ellipse fill="#F9060C" cx="51.422" cy="192.113" rx="14.964" ry="18.673"/>
					<g>
						<ellipse fill="#EAEAEA" cx="53.424" cy="193.139" rx="14.69" ry="19.699"/>
						<path fill="#E0DFE3" d="M43.004,193.705c0,9.905,5.216,18.051,11.901,19.033c7.417-0.996,13.209-9.391,13.209-19.6
							c0-8.051-3.603-14.969-8.763-18.025c-0.992-0.342-2.021-0.542-3.086-0.542C48.941,174.573,43.004,183.139,43.004,193.705z"/>
					</g>
				</g>
				<g>
					<path fill="#B88A44" d="M38.734,158.605c0,0,15.682,7.322,14.037,20.36c-1.644,13.038-8.026,29.835-14.037,35.003
						c0,0-0.958,3.495,3.583,1.488c5.033-2.225,1.426,3.774,4.698,6.03c3.692,2.545,3.056-6.163,7.046-2.963
						s4.371,7.427,7.942,5.782c3.571-1.644-1.785-8.454-2.161-14.152c-0.376-5.698,5.027-58.115,14.894-72.372
						C74.737,137.781,45.919,125.944,38.734,158.605z"/>
					<path fill="#A57330" d="M38.734,145.227c0,0,16.426,1.163,17.131,25.908C55.864,171.134,59.739,140.618,38.734,145.227z"/>
					<path fill="#A57330" d="M62.004,144.298l-1.315,20.529C60.689,164.827,64.754,152.624,62.004,144.298z"/>
					<path fill="#A57330" d="M42.435,214.303c0,0,2.228-2.68,3.581-4.15s1.966-0.711,1.424,3.021s-0.659,4.906-0.659,4.906
						S46.84,211.353,42.435,214.303z"/>
					<path fill="#A57330" d="M51.422,217.464c0,0,0.896-6.378,3.002-4.291s2.269,6.215,2.269,6.215S53.569,213.425,51.422,217.464z"
						/>
				</g>
				<g>
					<path fill="#FFC3B5" d="M57.365,210.048l-11.188-2.877c-2.663-0.685-4.282-3.424-3.597-6.088l5.696-22.149
						c0.685-2.663,3.424-4.282,6.088-3.597l11.188,2.877c2.663,0.685,4.282,3.424,3.597,6.088l-5.696,22.149
						C62.768,209.114,60.028,210.733,57.365,210.048z"/>
					<polygon fill="#F2B0A2" points="55.097,185.228 67.326,191.389 68.91,185.228 					"/>
					<path fill="#FFC3B5" d="M65.82,187.986l-14.968-3.849c-2.019-0.519-3.247-2.596-2.727-4.616l0.452-1.757
						c0.519-2.02,2.597-3.247,4.616-2.728l14.968,3.849c2.02,0.519,3.247,2.596,2.728,4.616l-0.452,1.757
						C69.917,187.277,67.84,188.505,65.82,187.986z"/>
				</g>
			</g>
		</g>
	</g>
</g>
</svg>
