<?xml version="1.0" encoding="utf-8"?>
<!-- Generator: Adobe Illustrator 17.0.0, SVG Export Plug-In . SVG Version: 6.00 Build 0)  -->
<!DOCTYPE svg PUBLIC "-//W3C//DTD SVG 1.1//EN" "http://www.w3.org/Graphics/SVG/1.1/DTD/svg11.dtd">
<svg version="1.1" id="Layer_1" xmlns="http://www.w3.org/2000/svg" xmlns:xlink="http://www.w3.org/1999/xlink" x="0px" y="0px"
	 width="262.101px" height="345.025px" viewBox="0 0 262.101 345.025" enable-background="new 0 0 262.101 345.025"
	 xml:space="preserve">
<ellipse opacity="0.1" fill="#231F20" cx="112.948" cy="328.901" rx="108.929" ry="12.069"/>
<g>
	<g>
		<ellipse fill="#F2B0A2" cx="212.44" cy="105.219" rx="13.119" ry="14.63"/>
		<g>
			<path fill="#F9060C" d="M142.991,161.943c-1.64-0.51-2.689-0.935-3.016-1.072l9.093-21.661l-0.106-0.044
				c0.069,0.028,6.866,2.666,15.187,1.46c10.595-1.536,19.27-8.721,25.781-21.354c2.972-5.766,10.056-8.035,15.822-5.059
				c5.766,2.972,8.032,10.056,5.059,15.822c-13.057,25.332-31.549,32.488-44.761,34.032
				C155.856,165.258,147.344,163.297,142.991,161.943z"/>
			<path fill="#DB0515" d="M205.752,114.214c-3.214-1.659-6.837-1.685-9.93-0.387l1.967,5.371c0,0,9.206,14.396-9.474,30.447
				c-15.727,13.514-29.556-3.388-33.535-9.07c-3.503-0.515-5.778-1.393-5.817-1.409l0.106,0.044l-9.093,21.661
				c0.327,0.137,1.376,0.561,3.016,1.072c4.353,1.355,12.865,3.316,23.059,2.125c13.212-1.544,31.704-8.7,44.761-34.032
				C213.784,124.27,211.518,117.186,205.752,114.214z"/>
		</g>
		<g>
			<path fill="#EAEAEA" d="M209.323,135.003l-21.462-12.995c-1.493-0.904-1.974-2.865-1.071-4.357l5.944-9.816
				c0.904-1.493,2.865-1.974,4.357-1.071l21.462,12.995c1.493,0.904,1.974,2.865,1.071,4.357l-5.943,9.816
				C212.776,135.425,210.815,135.907,209.323,135.003z"/>
			<path fill="#E0DFE3" d="M218.717,119.859l-0.543-0.329c-1.828,4.92-8.438,14.371-30.478-3.375l-1.005,1.659
				c-0.849,1.403-0.397,3.245,1.006,4.094l21.789,13.194c1.403,0.849,3.245,0.397,4.094-1.006l6.142-10.143
				C220.572,122.551,220.119,120.708,218.717,119.859z"/>
		</g>
		<g>
			<g>
				<g>
					<circle fill="#F9060C" cx="238.904" cy="32.365" r="7.144"/>
					<path fill="#DB0515" d="M232.59,35.707c-0.106-2.013,0.635-4.058,2.21-5.557c2.861-2.718,7.382-2.603,10.101,0.258
						c0.46,0.484,0.837,1.016,1.136,1.579c-0.087-1.641-0.733-3.26-1.954-4.543c-2.719-2.86-7.24-2.976-10.1-0.257
						C231.607,29.444,231.127,32.946,232.59,35.707z"/>
				</g>
				<g>
					<path fill="#F1BB1B" d="M216.087,86.815c4.193,1.722,8.986-0.281,10.709-4.473c1.721-4.193-0.282-8.987-4.474-10.709
						c-4.193-1.722-8.987,0.281-10.708,4.473C209.891,80.299,211.894,85.093,216.087,86.815z M220.736,75.494
						c2.06,0.846,3.044,3.202,2.198,5.262c-0.846,2.06-3.201,3.045-5.261,2.198c-2.06-0.846-3.045-3.202-2.198-5.262
						C216.32,75.633,218.676,74.648,220.736,75.494z"/>
					<path fill="#E9951E" d="M226.824,82.259c1.662-4.173-0.337-8.915-4.503-10.626c-4.19-1.721-8.981,0.279-10.705,4.466
						c1.054,1.051,2.25,1.973,3.575,2.736c0.037-0.384,0.129-0.768,0.283-1.143c0.846-2.06,3.201-3.044,5.262-2.198
						c2.06,0.846,3.044,3.202,2.198,5.262c-0.149,0.362-0.346,0.689-0.578,0.98C223.837,82.111,225.337,82.281,226.824,82.259z"/>
					<path fill="#F1BB1B" d="M218.121,29.953l-9.41,23.237c-3.919,9.678,0.372,20.548,9.584,24.279l2.781,1.126
						c9.211,3.73,19.857-1.091,23.777-10.77l9.409-23.237L218.121,29.953z"/>
					<path fill="#E9951E" d="M210.662,71.412c-0.308-3.05,0.105-6.246,1.351-9.322l3.607-8.907
						c2.326-4.599,8.546-12.529,22.546-7.551l13.467,5.453l2.631-6.497l-36.141-14.635l-9.41,23.237
						C206.143,59.534,207.102,66.39,210.662,71.412z"/>
					<path fill="#F1BB1B" d="M214.488,27.904c0.65-1.605,2.255-2.469,3.587-1.93l39.283,15.907c1.331,0.539,1.883,2.276,1.233,3.882
						l0,0c-0.65,1.605-2.255,2.469-3.586,1.93l-39.283-15.907C214.39,31.247,213.838,29.509,214.488,27.904L214.488,27.904z"/>
					<path fill="#E9951E" d="M258.59,45.763c0.65-1.605,0.098-3.343-1.233-3.882l-39.283-15.907
						c-1.331-0.539-2.937,0.325-3.587,1.93c-0.022,0.053-0.039,0.107-0.057,0.161l44.089,17.853
						C258.543,45.867,258.569,45.816,258.59,45.763z"/>
				</g>
			</g>
			<g>
				<path fill="#F1BB1B" d="M196.515,130.427l-0.991-0.455c-1.139-0.523-1.643-1.883-1.119-3.022l19.627-42.72
					c0.523-1.139,1.883-1.643,3.022-1.119l0.991,0.455c1.139,0.523,1.643,1.883,1.119,3.022l-19.627,42.72
					C199.013,130.447,197.653,130.95,196.515,130.427z"/>
				<path fill="#E9951E" d="M202.814,108.646c1.024,1.779,2.342,3.756,3.817,5.221l7.775-16.922l-4.156-4.483L202.814,108.646z"/>
			</g>
		</g>
		<g>
			
				<ellipse transform="matrix(0.9087 0.4175 -0.4175 0.9087 59.8328 -75.7811)" fill="#FFC3B5" cx="203.147" cy="98.884" rx="4.481" ry="7.792"/>
			<ellipse fill="#FFC3B5" cx="216.606" cy="104.743" rx="9.774" ry="15.106"/>
			<g>
				<path fill="#F2B0A2" d="M222.62,110.584c0.021,0.054,0.037,0.11,0.048,0.17c0.094,0.51-0.243,1-0.753,1.095l-12.719,2.351
					c-0.51,0.095-1-0.233-1.095-0.753c-0.094-0.51,0.243-1,0.753-1.095l12.719-2.351C222.025,109.917,222.46,110.172,222.62,110.584
					z"/>
				<path fill="#F2B0A2" d="M221.165,103.741c0.029,0.074,0.048,0.151,0.057,0.233c0.06,0.515-0.31,0.981-0.825,1.042l-13.355,1.555
					c-0.517,0.06-0.982-0.308-1.042-0.825c-0.06-0.515,0.31-0.981,0.825-1.042l13.355-1.555
					C220.614,103.098,221.014,103.351,221.165,103.741z"/>
				<path fill="#F2B0A2" d="M219.811,97.417c0.04,0.103,0.062,0.214,0.063,0.331c0.005,0.52-0.411,0.944-0.931,0.949l-10.646,0.102
					c-0.519,0.006-0.944-0.409-0.948-0.93c-0.005-0.52,0.411-0.944,0.93-0.949l10.646-0.103
					C219.328,96.814,219.673,97.062,219.811,97.417z"/>
			</g>
		</g>
	</g>
	<g>
		<g>
			<path fill="#F9060C" d="M71.699,131.967c1.653-0.466,2.764-0.682,3.113-0.746l4.184,23.117l0.113-0.021
				c-0.073,0.015-7.209,1.508-13.528,7.055c-8.045,7.063-11.402,17.815-9.974,31.956c0.652,6.454-4.051,12.218-10.507,12.866
				c-6.454,0.652-12.215-4.052-12.866-10.507c-2.862-28.355,8.74-44.435,18.975-52.931C59.106,136.2,67.311,133.204,71.699,131.967z
				"/>
			<path fill="#DB0515" d="M45.1,206.193c3.599-0.361,6.65-2.315,8.536-5.089l-4.576-3.431c0,0-15.565-7.051-8.654-30.69
				c5.819-19.903,26.626-13.271,33.059-10.677c3.218-1.478,5.603-1.982,5.645-1.99l-0.113,0.021l-4.184-23.117
				c-0.348,0.063-1.459,0.279-3.113,0.746c-4.388,1.237-12.593,4.233-20.49,10.788c-10.236,8.496-21.837,24.576-18.975,52.931
				C32.885,202.14,38.646,206.844,45.1,206.193z"/>
		</g>
		<g>
			<path fill="#EAEAEA" d="M30.774,190.71l25.077-0.804c1.744-0.056,3.217,1.325,3.273,3.069l0.368,11.469
				c0.056,1.744-1.325,3.217-3.069,3.273l-25.077,0.804c-1.744,0.056-3.217-1.325-3.273-3.069l-0.368-11.469
				C27.648,192.238,29.03,190.766,30.774,190.71z"/>
			<path fill="#E0DFE3" d="M31.154,208.527l0.634-0.02c-1.15-5.121-0.76-16.647,27.392-13.785l-0.062-1.939
				c-0.053-1.639-1.436-2.937-3.075-2.884l-25.459,0.817c-1.639,0.053-2.937,1.436-2.884,3.075l0.38,11.852
				C28.131,207.282,29.515,208.58,31.154,208.527z"/>
		</g>
		
			<ellipse transform="matrix(0.9959 -0.0908 0.0908 0.9959 -18.1772 5.5748)" fill="#F2B0A2" cx="52.163" cy="202.504" rx="4.728" ry="6.857"/>
		<g>
			<path fill="#FFC3B5" d="M50.56,196.703c0,0,6.392-0.149,3.445,8.547c-2.946,8.696-4.165,10.642,0.343,17.582
				c4.508,6.94-9.352,11.308-17.559,0.413C28.984,212.883,34.786,194.844,50.56,196.703z"/>
			<g>
				<path fill="#F2B0A2" d="M38.704,204.974c-0.065-0.074-0.122-0.156-0.167-0.246c-0.293-0.579-0.033-1.255,0.581-1.512
					c8.514-3.558,15.428,0.199,15.717,0.361c0.59,0.328,0.796,1.033,0.459,1.575c-0.336,0.54-1.087,0.711-1.677,0.385
					c-0.254-0.14-6.129-3.279-13.438-0.225C39.661,205.528,39.056,205.374,38.704,204.974z"/>
				<path fill="#F2B0A2" d="M37.423,211.553c-0.301-0.344-0.381-0.826-0.163-1.239c0.296-0.562,1.032-0.781,1.645-0.489
					c4.347,2.071,12.626,1.113,12.709,1.103c0.672-0.08,1.302,0.362,1.407,0.991c0.105,0.628-0.354,1.201-1.026,1.282
					c-0.37,0.044-9.122,1.061-14.165-1.343C37.668,211.782,37.531,211.676,37.423,211.553z"/>
				<path fill="#F2B0A2" d="M38.979,220.252c-0.357-0.407-0.389-0.994-0.042-1.419c0.406-0.497,1.177-0.582,1.723-0.19
					c5.669,4.072,11.872,1.254,11.933,1.225c0.602-0.28,1.343-0.05,1.665,0.519c0.318,0.567,0.089,1.255-0.512,1.536
					c-0.309,0.144-7.653,3.479-14.557-1.479C39.11,220.385,39.04,220.321,38.979,220.252z"/>
			</g>
		</g>
	</g>
	<g>
		<g>
			<polygon fill="#563627" points="57.719,293.702 53.19,308.281 72.809,320.831 80.742,308.429 			"/>
			<path fill="#49291D" d="M53.188,308.28l17.847,11.416c1.359-6.867-2.834-15.198-10.842-20.321
				c-1.186-0.758-2.4-1.409-3.627-1.958L53.188,308.28z"/>
			<path fill="#563627" d="M69.535,328.962c0.482-0.52,0.925-1.08,1.315-1.69c4.679-7.315,0.569-18.3-9.18-24.535
				c-9.749-6.236-21.445-5.361-26.123,1.954c-0.39,0.609-0.713,1.246-0.983,1.902L69.535,328.962z"/>
			<path fill="#49291D" d="M40.131,306.528c0.276-0.652,0.603-1.286,0.993-1.896c2.021-3.16,5.268-5.167,9.042-5.962
				c-6.143-0.563-11.724,1.494-14.619,6.02c-0.39,0.609-0.713,1.246-0.983,1.902l34.971,22.369c0.482-0.52,0.925-1.08,1.314-1.69
				c0.167-0.261,0.32-0.528,0.464-0.798L40.131,306.528z"/>
		</g>
		<g>
			<polygon fill="#F9060C" points="84.561,302.459 58.74,285.943 76.076,251.767 105.107,270.337 			"/>
			<path fill="#DB0515" d="M64.889,273.821c11.209,2.762,23.16,4.274,34.868,4.88l5.35-8.364l-29.031-18.57L64.889,273.821z"/>
		</g>
		<g>
			<path fill="#EAEAEA" d="M80.673,309.175L54.87,292.67c-0.589-0.376-0.775-1.204-0.447-1.983l4.687-11.137
				c0.44-1.046,1.596-1.553,2.386-1.048l27.533,17.611c0.687,0.439,0.81,1.474,0.275,2.311l-6.416,10.031
				C82.351,309.292,81.36,309.614,80.673,309.175z"/>
			<path fill="#D9DEE4" d="M89.028,296.113l-1.809-1.157c-2.829,3.196-12.762,11.093-32.156-5.789l-0.64,1.52
				c-0.328,0.779-0.141,1.606,0.447,1.983l25.803,16.505c0.687,0.439,1.678,0.117,2.213-0.72l6.416-10.03
				C89.837,297.588,89.715,296.553,89.028,296.113z"/>
		</g>
	</g>
	<g>
		<g>
			<polygon fill="#563627" points="169.085,293.702 173.615,308.281 153.995,320.831 146.062,308.429 			"/>
			<path fill="#49291D" d="M173.616,308.28l-17.847,11.416c-1.359-6.867,2.834-15.198,10.842-20.321
				c1.186-0.758,2.4-1.409,3.628-1.958L173.616,308.28z"/>
			<path fill="#563627" d="M157.269,328.962c-0.482-0.52-0.925-1.08-1.315-1.69c-4.679-7.315-0.569-18.3,9.18-24.535
				c9.749-6.236,21.445-5.361,26.123,1.954c0.39,0.609,0.713,1.246,0.983,1.902L157.269,328.962z"/>
			<path fill="#49291D" d="M186.673,306.528c-0.276-0.652-0.603-1.286-0.992-1.896c-2.021-3.16-5.268-5.167-9.042-5.962
				c6.143-0.563,11.724,1.494,14.619,6.02c0.39,0.609,0.713,1.246,0.983,1.902l-34.971,22.369c-0.482-0.52-0.925-1.08-1.315-1.69
				c-0.167-0.261-0.32-0.528-0.464-0.798L186.673,306.528z"/>
		</g>
		<g>
			<polygon fill="#F9060C" points="142.244,302.459 168.064,285.943 150.728,251.767 121.697,270.337 			"/>
			<path fill="#DB0515" d="M161.915,273.821c-11.209,2.762-23.16,4.274-34.868,4.88l-5.35-8.364l29.031-18.57L161.915,273.821z"/>
		</g>
		<g>
			<path fill="#EAEAEA" d="M146.131,309.175l25.803-16.505c0.588-0.376,0.775-1.204,0.447-1.983l-4.687-11.137
				c-0.44-1.046-1.596-1.553-2.386-1.048l-27.533,17.611c-0.687,0.439-0.81,1.474-0.275,2.311l6.416,10.031
				C144.454,309.292,145.444,309.614,146.131,309.175z"/>
			<path fill="#D9DEE4" d="M137.777,296.113l1.809-1.157c2.829,3.196,12.762,11.093,32.156-5.789l0.64,1.52
				c0.328,0.779,0.141,1.606-0.447,1.983l-25.803,16.505c-0.687,0.439-1.678,0.117-2.213-0.72l-6.416-10.03
				C136.967,297.588,137.09,296.553,137.777,296.113z"/>
		</g>
	</g>
	<g>
		<path fill="#F9060C" d="M85.988,126.298c0,0-50.459,64.414-31.079,122.943c0,0,63.675,20.316,117.06-1.981
			c0,0,16.735-56.288-33.654-120.962H85.988z"/>
		<path fill="#DB0515" d="M138.315,126.298h-2.863c2.68,1.621,3.927,3.498,3.927,3.498s69.503,115.087-87.216,108.901
			c0.685,3.526,1.587,7.045,2.746,10.544c0,0,63.675,20.317,117.06-1.981C171.969,247.259,188.703,190.971,138.315,126.298z"/>
		<rect x="102.082" y="126.298" fill="#EAEAEA" width="21.249" height="130.89"/>
		<path fill="#D9DEE4" d="M123.332,235.784c0,0-1.663,13.777-16.046,15.267c0,0,12.489,1.961,16.046,0.238V235.784z"/>
		<g>
			<path fill="#EAEAEA" d="M51.411,241.659c0,0,69.53,20.199,123.045,0c0,0,3.183,14.569-2.433,21.617
				c-5.616,7.048-72.452,16.444-118.563,1.41C53.46,264.685,46.937,256.62,51.411,241.659z"/>
			<path fill="#D9DEE4" d="M174.456,241.659c-2.223,0.839-4.476,1.602-6.749,2.307c-4.952,12.048-26.468,31.5-117.65,11.246
				c0.773,6.213,3.403,9.474,3.403,9.474c46.111,15.035,112.947,5.638,118.563-1.41
				C177.639,256.228,174.456,241.659,174.456,241.659z"/>
		</g>
		<g>
			<g>
				<path fill="#563627" d="M51.336,204.923c0,0,66.619,19.571,122.209-0.628c0,0,6.617,14.569,0.783,21.617
					c-5.834,7.048-75.951,16.19-123.851,1.155C50.477,227.068,46.689,219.884,51.336,204.923z"/>
				<path fill="#49291D" d="M49.029,218.271c-0.065,5.908,1.448,8.797,1.448,8.797c47.9,15.035,118.016,5.892,123.85-1.155
					c1.815-2.192,2.424-5.112,2.403-8.095C160.765,224.759,100.262,233.718,49.029,218.271z"/>
			</g>
			<g>
				<path fill="#FFAA00" d="M136.521,235.799c-11.596,3.68-27.472,3.161-44.87,0v-26.781c16.797,2.548,32.305,2.743,44.87,0V235.799
					z"/>
				<path fill="#FFCE00" d="M136.521,237.287c-11.596,3.68-27.472,3.161-44.87,0v-26.781c16.797,2.548,32.305,2.743,44.87,0V237.287
					z"/>
				<path fill="#FFAA00" d="M91.651,232.991v4.752c17.398,3.161,33.273,3.68,44.87,0v-13.809
					C130.316,229.88,117.618,235.348,91.651,232.991z"/>
				<path fill="#563627" d="M132.214,233.863c-9.37,2.639-22.198,2.267-36.256,0v-19.207c13.573,1.827,26.103,1.967,36.256,0
					V233.863z"/>
				<path fill="#49291D" d="M95.957,231.999v1.864c14.058,2.267,26.886,2.639,36.256,0v-1.864
					C122.843,234.638,110.016,234.266,95.957,231.999z"/>
			</g>
		</g>
	</g>
	<g>
		<g>
			<g>
				<circle fill="#FFC3B5" cx="158.851" cy="95.448" r="12.25"/>
				<circle fill="#F2B0A2" cx="158.852" cy="95.448" r="6.211"/>
			</g>
			<g>
				<circle fill="#FFC3B5" cx="66.292" cy="95.448" r="12.25"/>
				<circle fill="#F2B0A2" cx="66.292" cy="95.448" r="6.211"/>
			</g>
			<circle fill="#FFC3B5" cx="112.127" cy="92.299" r="45.835"/>
		</g>
		<g>
			<ellipse fill="#FFFFFF" cx="95.154" cy="90.545" rx="7.957" ry="10.547"/>
			<ellipse fill="#563627" cx="99.046" cy="91.591" rx="2.562" ry="3.396"/>
		</g>
		<g>
			<ellipse fill="#FFFFFF" cx="128.967" cy="90.545" rx="7.956" ry="10.548"/>
			<ellipse fill="#563627" cx="126.526" cy="92.091" rx="2.562" ry="3.396"/>
		</g>
		<ellipse fill="#FF765F" cx="83.739" cy="102.239" rx="4.816" ry="1.864"/>
		<ellipse fill="#FF765F" cx="139.975" cy="102.239" rx="4.816" ry="1.864"/>
		<g>
			<g>
				<path fill="#F6EEE1" d="M158.294,114.786l0.558-27.976l-13.463,16.493c-7.252,0-13.132,6.304-13.132,14.08
					s5.879,14.08,13.132,14.08c7.252,0,13.132-6.304,13.132-14.08C158.52,116.495,158.44,115.628,158.294,114.786L158.294,114.786z"
					/>
				<path fill="#EADDCA" d="M158.852,86.811l-3.945,25.456c0.146,0.842,0.227,1.709,0.227,2.597c0,7.776-5.879,14.08-13.131,14.08
					c-2.035,0-3.963-0.497-5.682-1.383c2.358,2.416,5.551,3.903,9.069,3.903c7.252,0,13.132-6.304,13.132-14.08
					c0-0.887-0.08-1.755-0.227-2.596L158.852,86.811z"/>
			</g>
			<g>
				<ellipse fill="#F6EEE1" cx="141.113" cy="133.705" rx="11.075" ry="11.875"/>
				<path fill="#EADDCA" d="M147.939,124.356c0.726,1.581,1.136,3.358,1.136,5.239c0,6.559-4.959,11.875-11.075,11.875
					c-2.576,0-4.945-0.945-6.826-2.527c1.805,3.93,5.577,6.636,9.94,6.636c6.117,0,11.075-5.317,11.075-11.875
					C152.188,129.908,150.525,126.53,147.939,124.356z"/>
			</g>
			<g>
				<path fill="#F6EEE1" d="M65.878,114.786L65.32,86.811l13.463,16.493c7.252,0,13.131,6.304,13.131,14.08
					s-5.879,14.08-13.131,14.08c-7.252,0-13.131-6.304-13.131-14.08C65.651,116.495,65.732,115.628,65.878,114.786L65.878,114.786z"
					/>
				<path fill="#EADDCA" d="M65.32,86.811l3.945,25.456c-0.146,0.842-0.227,1.709-0.227,2.597c0,7.776,5.879,14.08,13.132,14.08
					c2.035,0,3.963-0.497,5.682-1.383c-2.357,2.416-5.55,3.903-9.069,3.903c-7.252,0-13.131-6.304-13.131-14.08
					c0-0.887,0.08-1.755,0.227-2.596L65.32,86.811z"/>
			</g>
			<g>
				<ellipse fill="#F6EEE1" cx="83.059" cy="133.705" rx="11.075" ry="11.875"/>
				<path fill="#EADDCA" d="M76.233,124.356c-0.726,1.581-1.136,3.358-1.136,5.239c0,6.559,4.959,11.875,11.075,11.875
					c2.576,0,4.944-0.945,6.826-2.527c-1.806,3.93-5.577,6.636-9.94,6.636c-6.117,0-11.075-5.317-11.075-11.875
					C71.983,129.908,73.647,126.53,76.233,124.356z"/>
			</g>
			<g>
				<ellipse fill="#F6EEE1" cx="112.524" cy="133.705" rx="31.335" ry="35.037"/>
				<path fill="#EADDCA" d="M112.524,160.557c-16.067,0-29.301-13.524-31.115-30.945c-0.14,1.343-0.22,2.707-0.22,4.092
					c0,19.351,14.029,35.038,31.335,35.038c17.306,0,31.335-15.687,31.335-35.038c0-1.385-0.08-2.749-0.22-4.092
					C141.825,147.033,128.591,160.557,112.524,160.557z"/>
			</g>
		</g>
		<g>
			<ellipse fill="#D56A85" cx="112.556" cy="100.798" rx="13.751" ry="6.653"/>
			<path fill="#C45575" d="M122.567,96.24c0.654,0.682,1.022,1.442,1.022,2.244c0,2.948-4.94,5.338-11.033,5.338
				c-6.094,0-11.033-2.39-11.033-5.338c0-0.802,0.368-1.561,1.022-2.244c-2.317,1.191-3.739,2.794-3.739,4.558
				c0,3.674,6.156,6.653,13.751,6.653c7.594,0,13.751-2.979,13.751-6.653C126.307,99.034,124.884,97.431,122.567,96.24z"/>
		</g>
		<g>
			<polygon fill="#F6EEE1" points="65.343,74.607 65.32,92.299 76.518,74.607 			"/>
			<polygon fill="#EADDCA" points="65.328,74.607 65.32,92.299 69.086,74.607 			"/>
		</g>
		<g>
			<polygon fill="#F6EEE1" points="158.828,74.607 158.852,92.299 147.654,74.607 			"/>
			<polygon fill="#EADDCA" points="158.844,74.607 158.852,92.299 155.085,74.607 			"/>
		</g>
		<g>
			<g>
				<path fill="#E50516" d="M128.626,9.171l62.679,51.697c1.349,0.75,1.826,2.458,1.061,3.799l0,0
					c-0.539,0.944-1.579,1.487-2.662,1.388l-78.662-7.177c-1.539-0.14-2.667-1.512-2.507-3.049l2.494-37.566
					C112.425,1.555,126.886,8.203,128.626,9.171z"/>
				<path fill="#C60A21" d="M191.305,60.868l-10.591-8.735c-1.001,0.883-2.471,2.797-3.089,4.629c-1.309,3.884,0,5.481,0,5.481
					l-12.562,1.564l24.642,2.248c1.083,0.099,2.123-0.444,2.662-1.388C193.131,63.326,192.654,61.618,191.305,60.868z"/>
			</g>
			<g>
				<path fill="#F9060C" d="M158.696,64.984c0.021-0.897,0.017-1.8-0.043-2.712c-1.533-23.599-20.854-58.688-46.938-58.688
					c-26.084,0-44.595,35.324-47.519,58.688c-0.114,0.912-0.167,1.814-0.191,2.712H158.696z"/>
				<path fill="#DB0515" d="M158.653,62.272c-0.594-9.151-3.874-20.026-9.175-29.917l-0.135,1.929c0,0,2.847,18.226-45.012,17.849
					c0,0-30.485,0.02-36.041-5.707c-0.067-0.069-0.125-0.149-0.185-0.225c-1.954,5.595-3.287,11.104-3.909,16.072
					c-0.114,0.912-0.167,1.814-0.191,2.712h94.691C158.716,64.086,158.712,63.184,158.653,62.272z"/>
			</g>
			<g>
				<ellipse fill="#EAEAEA" cx="192.054" cy="65.762" rx="10.377" ry="9.903"/>
				<path fill="#E0DFE3" d="M192.054,55.859c-0.248,0-0.493,0.011-0.737,0.028c3.539,1.018,6.118,4.151,6.118,7.861
					c0,4.534-3.852,8.21-8.603,8.21c-2.633,0-4.989-1.13-6.567-2.909c1.42,3.854,5.266,6.617,9.789,6.617
					c5.731,0,10.377-4.434,10.377-9.903C202.43,60.292,197.785,55.859,192.054,55.859z"/>
			</g>
			<g>
				<path fill="#EAEAEA" d="M158.438,75.489H65.683c-1.853,0-3.369-1.516-3.369-3.369V60.113c0-1.853,1.516-3.369,3.369-3.369
					h92.755c1.853,0,3.369,1.516,3.369,3.369V72.12C161.807,73.973,160.291,75.489,158.438,75.489z"/>
				<path fill="#E0DFE3" d="M158.641,56.744h-2.87c-6.264,5.975-28.231,19.727-93.457,11.895v3.685c0,1.741,1.425,3.166,3.166,3.166
					h93.161c1.741,0,3.166-1.425,3.166-3.166V59.91C161.807,58.168,160.382,56.744,158.641,56.744z"/>
			</g>
		</g>
		<g>
			<path fill="#F6EEE1" d="M102.414,73.17c0.123-0.545-0.197-1.106-0.761-1.307c-4.484-1.596-8.845-1.997-13.03-1.177
				c-4.664,0.914-8.111,3.182-10.335,5.127c-0.477,0.417-0.515,1.1-0.093,1.565l2.963,3.263c0.466,0.513,1.304,0.558,1.822,0.09
				c1.487-1.346,3.923-3.046,7.211-3.67c2.966-0.564,6.174-0.165,9.578,1.161c0.717,0.279,1.532-0.125,1.69-0.825L102.414,73.17z"/>
			<path fill="#EADDCA" d="M100.792,76.029c-3.404-1.326-6.612-1.725-9.578-1.161c-3.289,0.624-5.724,2.324-7.211,3.67
				c-0.518,0.469-1.356,0.423-1.822-0.09l-2.963-3.263c-0.027-0.029-0.035-0.066-0.058-0.097c-0.308,0.244-0.6,0.487-0.871,0.725
				c-0.477,0.417-0.515,1.1-0.093,1.565l2.963,3.263c0.466,0.513,1.304,0.558,1.822,0.09c1.487-1.346,3.923-3.046,7.211-3.67
				c2.966-0.564,6.174-0.165,9.578,1.161c0.717,0.279,1.532-0.125,1.69-0.825l0.313-1.386
				C101.474,76.137,101.124,76.159,100.792,76.029z"/>
		</g>
		<g>
			<path fill="#F6EEE1" d="M120.673,73.17c-0.123-0.545,0.197-1.106,0.761-1.307c4.484-1.596,8.845-1.997,13.03-1.177
				c4.664,0.914,8.111,3.182,10.335,5.127c0.477,0.417,0.515,1.1,0.093,1.565l-2.963,3.263c-0.466,0.513-1.304,0.558-1.822,0.09
				c-1.487-1.346-3.923-3.046-7.211-3.67c-2.966-0.564-6.174-0.165-9.578,1.161c-0.717,0.279-1.532-0.125-1.691-0.825L120.673,73.17
				z"/>
			<path fill="#EADDCA" d="M144.799,75.814c-0.272-0.238-0.563-0.48-0.871-0.725c-0.023,0.031-0.032,0.068-0.059,0.097l-2.963,3.263
				c-0.466,0.513-1.304,0.558-1.822,0.09c-1.487-1.346-3.923-3.046-7.211-3.67c-2.966-0.564-6.174-0.165-9.578,1.161
				c-0.331,0.129-0.681,0.107-0.98-0.017l0.313,1.386c0.158,0.7,0.974,1.104,1.69,0.825c3.404-1.326,6.612-1.725,9.578-1.161
				c3.289,0.624,5.724,2.324,7.211,3.67c0.518,0.469,1.356,0.423,1.822-0.09l2.963-3.263
				C145.314,76.914,145.276,76.231,144.799,75.814z"/>
		</g>
		<g>
			<ellipse fill="#DB0515" cx="112.899" cy="118.105" rx="9.365" ry="6.8"/>
			<path fill="#F9060C" d="M103.705,116.829c-0.108,0.414-0.171,0.839-0.171,1.276c0,3.756,4.193,6.8,9.365,6.8
				c5.172,0,9.364-3.045,9.364-6.8c0-0.437-0.062-0.862-0.171-1.276c-2.581-0.94-5.752-1.502-9.194-1.502
				C109.457,115.327,106.286,115.889,103.705,116.829z"/>
		</g>
	</g>
</g>
</svg>
