<?xml version="1.0" encoding="utf-8"?>
<!-- Generator: Adobe Illustrator 17.0.0, SVG Export Plug-In . SVG Version: 6.00 Build 0)  -->
<!DOCTYPE svg PUBLIC "-//W3C//DTD SVG 1.1//EN" "http://www.w3.org/Graphics/SVG/1.1/DTD/svg11.dtd">
<svg version="1.1" id="Layer_1" xmlns="http://www.w3.org/2000/svg" xmlns:xlink="http://www.w3.org/1999/xlink" x="0px" y="0px"
	 width="239.75px" height="347.75px" viewBox="0 0 239.75 347.75" enable-background="new 0 0 239.75 347.75" xml:space="preserve">
<g>
	<ellipse opacity="0.1" fill="#231F20" cx="110.951" cy="333.517" rx="108.929" ry="12.069"/>
	<g>
		<g>
			<g>
				<path fill="#FFC3B5" d="M202.786,110.729c-0.657-2.106-1.353-17.948,4.635-17.643c4.019,0.205,2.983,5.116,2.983,5.116
					s6.007-19.512,20.042-14.861c14.036,4.651,6.584,29.17-8.939,38.741L202.786,110.729z"/>
				<g>
					<path fill="#F2B0A2" d="M215.566,109.019c-0.443-0.138-0.726-0.585-0.646-1.055c0.495-2.901,0.151-5.032-1.024-6.333
						c-1.407-1.56-3.573-1.432-3.595-1.431c-0.515,0.035-0.965-0.357-1-0.874c-0.035-0.518,0.356-0.966,0.874-1.001
						c0.124-0.01,3.103-0.183,5.116,2.046c1.58,1.75,2.079,4.411,1.481,7.908c-0.087,0.512-0.573,0.856-1.085,0.768
						C215.645,109.041,215.605,109.032,215.566,109.019z"/>
					<path fill="#F2B0A2" d="M219.23,94.142c-0.055-0.017-0.11-0.039-0.163-0.068c-0.458-0.244-0.631-0.813-0.388-1.271
						l6.078-11.418c0.243-0.458,0.805-0.638,1.271-0.388c0.458,0.244,0.631,0.813,0.388,1.271l-6.078,11.418
						C220.122,94.091,219.652,94.273,219.23,94.142z"/>
					<path fill="#F2B0A2" d="M225.554,96.429c-0.075-0.023-0.148-0.057-0.218-0.1c-0.44-0.274-0.575-0.853-0.302-1.294l7.097-11.42
						c0.275-0.442,0.852-0.577,1.294-0.302c0.44,0.274,0.576,0.853,0.302,1.294l-7.097,11.42
						C226.4,96.398,225.953,96.553,225.554,96.429z"/>
					<path fill="#F2B0A2" d="M230.598,100.248c-0.105-0.033-0.206-0.085-0.298-0.157c-0.41-0.319-0.483-0.91-0.163-1.319
						l6.547-8.395c0.319-0.409,0.908-0.484,1.318-0.163c0.41,0.319,0.483,0.91,0.163,1.319l-6.547,8.395
						C231.37,100.245,230.96,100.361,230.598,100.248z"/>
					<path fill="#F2B0A2" d="M232.266,104.375c-0.27-0.084-0.499-0.288-0.603-0.573c-2.72-7.386-15.254-10.235-15.379-10.262
						c-0.522-0.119-0.828-0.614-0.715-1.12c0.112-0.507,0.613-0.827,1.119-0.716c0.557,0.123,13.662,3.096,16.738,11.448
						c0.18,0.487-0.07,1.027-0.557,1.207C232.668,104.434,232.457,104.435,232.266,104.375z"/>
				</g>
			</g>
			<g>
				<path fill="#F9060C" d="M147.435,163.12c-1.64-0.51-2.689-0.935-3.016-1.071l9.093-21.661l-0.107-0.044
					c0.069,0.028,6.866,2.666,15.187,1.46c10.595-1.536,19.27-8.721,25.781-21.354c2.972-5.766,10.056-8.035,15.822-5.059
					c5.766,2.972,8.032,10.056,5.059,15.823c-13.057,25.332-31.549,32.488-44.761,34.032
					C160.3,166.436,151.788,164.475,147.435,163.12z"/>
				<path fill="#DB0515" d="M210.196,115.391c-3.214-1.659-6.837-1.685-9.93-0.386l1.967,5.371c0,0,9.206,14.396-9.474,30.447
					c-15.727,13.514-29.556-3.388-33.535-9.07c-3.503-0.515-5.778-1.393-5.817-1.409l0.107,0.044l-9.093,21.661
					c0.326,0.137,1.376,0.561,3.016,1.071c4.353,1.355,12.865,3.316,23.059,2.125c13.213-1.544,31.704-8.7,44.761-34.032
					C218.228,125.447,215.962,118.363,210.196,115.391z"/>
			</g>
			<g>
				<path fill="#EAEAEA" d="M213.767,136.181l-21.462-12.995c-1.493-0.904-1.974-2.865-1.071-4.357l5.944-9.816
					c0.904-1.493,2.865-1.974,4.357-1.071l21.462,12.995c1.493,0.904,1.974,2.865,1.071,4.357l-5.943,9.816
					C217.22,136.603,215.26,137.085,213.767,136.181z"/>
				<path fill="#E0DFE3" d="M223.161,121.036l-0.543-0.329c-1.828,4.92-8.438,14.371-30.479-3.375l-1.004,1.659
					c-0.849,1.403-0.397,3.245,1.006,4.094l21.789,13.194c1.403,0.849,3.245,0.397,4.094-1.006l6.142-10.143
					C225.016,123.728,224.564,121.886,223.161,121.036z"/>
			</g>
		</g>
		
			<ellipse transform="matrix(-0.9855 -0.1695 0.1695 -0.9855 119.5786 339.541)" fill="#DB0515" cx="74.28" cy="164.667" rx="24.949" ry="28.383"/>
		<g>
			<g>
				<polygon fill="#563627" points="62.163,294.88 57.634,309.458 77.254,322.008 85.186,309.606 				"/>
				<path fill="#49291D" d="M57.632,309.457l17.847,11.416c1.359-6.867-2.834-15.198-10.842-20.321
					c-1.185-0.758-2.4-1.409-3.627-1.958L57.632,309.457z"/>
				<path fill="#563627" d="M73.98,330.139c0.482-0.52,0.925-1.08,1.315-1.69c4.679-7.315,0.569-18.3-9.18-24.535
					c-9.749-6.236-21.445-5.361-26.123,1.954c-0.39,0.609-0.713,1.246-0.983,1.902L73.98,330.139z"/>
				<path fill="#49291D" d="M44.576,307.706c0.276-0.651,0.603-1.286,0.993-1.896c2.021-3.16,5.268-5.167,9.042-5.961
					c-6.143-0.563-11.724,1.494-14.619,6.02c-0.39,0.609-0.713,1.246-0.983,1.902l34.971,22.369c0.482-0.52,0.925-1.08,1.315-1.69
					c0.167-0.261,0.32-0.528,0.464-0.798L44.576,307.706z"/>
			</g>
			<g>
				<polygon fill="#F9060C" points="89.005,303.637 63.184,287.121 80.52,252.945 109.552,271.514 				"/>
				<path fill="#DB0515" d="M69.333,274.999c11.209,2.762,23.16,4.274,34.868,4.88l5.35-8.364l-29.031-18.57L69.333,274.999z"/>
			</g>
			<g>
				<path fill="#EAEAEA" d="M85.117,310.352l-25.803-16.505c-0.588-0.376-0.775-1.204-0.447-1.983l4.687-11.137
					c0.44-1.046,1.596-1.553,2.386-1.048l27.533,17.611c0.687,0.439,0.81,1.474,0.275,2.311l-6.416,10.031
					C86.795,310.47,85.804,310.792,85.117,310.352z"/>
				<path fill="#D9DEE4" d="M93.472,297.291l-1.809-1.157c-2.829,3.196-12.762,11.093-32.156-5.789l-0.64,1.52
					c-0.328,0.779-0.141,1.606,0.447,1.983l25.803,16.505c0.687,0.44,1.678,0.117,2.213-0.72l6.416-10.03
					C94.282,298.765,94.159,297.73,93.472,297.291z"/>
			</g>
		</g>
		<g>
			<g>
				<polygon fill="#563627" points="151.458,307.321 147.418,322.043 124.128,322.043 124.128,307.321 				"/>
				<path fill="#49291D" d="M147.42,322.043h-21.186c2.555-6.517,10.577-11.276,20.083-11.276c1.407,0,2.781,0.106,4.111,0.305
					L147.42,322.043z"/>
				<path fill="#563627" d="M122.505,330.656c-0.126-0.698-0.197-1.408-0.197-2.132c0-8.683,9.381-15.722,20.953-15.722
					c11.572,0,20.954,7.039,20.954,15.722c0,0.724-0.071,1.434-0.197,2.132H122.505z"/>
				<path fill="#49291D" d="M159.363,327.603c0.119-0.698,0.185-1.408,0.185-2.132c0-3.751-1.654-7.192-4.405-9.894
					c5.478,2.836,9.071,7.576,9.071,12.948c0,0.724-0.071,1.434-0.197,2.132h-41.513c-0.126-0.698-0.197-1.408-0.197-2.132
					c0-0.31,0.015-0.617,0.039-0.922H159.363z"/>
			</g>
			<g>
				<polygon fill="#F9060C" points="124.128,300.234 154.779,300.234 158.59,262.103 124.128,262.103 				"/>
				<path fill="#DB0515" d="M156.961,278.399c-10.836,1.762-22.048,2.587-32.833,2.74v-19.036h34.462L156.961,278.399z"/>
			</g>
			<g>
				<path fill="#EAEAEA" d="M123.784,307.987h30.631c0.699,0,1.301-0.596,1.445-1.429l2.053-11.907
					c0.193-1.118-0.508-2.169-1.445-2.169h-32.683c-0.815,0-1.477,0.805-1.477,1.799v11.907
					C122.308,307.181,122.969,307.987,123.784,307.987z"/>
				<path fill="#D9DEE4" d="M123.784,292.482h2.148c0.661,4.217,4.773,16.221,30.208,12.45l-0.28,1.625
					c-0.144,0.833-0.747,1.429-1.445,1.429h-30.63c-0.816,0-1.477-0.805-1.477-1.799v-11.907
					C122.308,293.287,122.969,292.482,123.784,292.482z"/>
			</g>
		</g>
		<g>
			<path fill="#F9060C" d="M90.432,127.475c0,0-50.459,64.414-31.079,122.943c0,0,63.675,20.316,117.06-1.981
				c0,0,16.735-56.288-33.654-120.962H90.432z"/>
			<path fill="#DB0515" d="M142.759,127.475h-2.863c2.68,1.621,3.927,3.498,3.927,3.498s69.503,115.087-87.216,108.901
				c0.685,3.526,1.587,7.045,2.746,10.544c0,0,63.675,20.317,117.06-1.981C176.413,248.437,193.148,192.149,142.759,127.475z"/>
			<rect x="106.527" y="127.475" fill="#EAEAEA" width="21.249" height="130.89"/>
			<path fill="#D9DEE4" d="M127.776,236.962c0,0-1.663,13.777-16.046,15.267c0,0,12.489,1.961,16.046,0.238V236.962z"/>
			<g>
				<path fill="#EAEAEA" d="M55.855,242.836c0,0,69.53,20.199,123.045,0c0,0,3.183,14.569-2.433,21.617
					c-5.616,7.048-72.452,16.444-118.563,1.409C57.904,265.863,51.382,257.797,55.855,242.836z"/>
				<path fill="#D9DEE4" d="M178.9,242.836c-2.223,0.839-4.476,1.603-6.749,2.307c-4.952,12.048-26.468,31.5-117.65,11.246
					c0.773,6.213,3.403,9.474,3.403,9.474c46.111,15.035,112.947,5.638,118.563-1.409C182.083,257.406,178.9,242.836,178.9,242.836z
					"/>
			</g>
			<g>
				<g>
					<path fill="#563627" d="M55.78,206.101c0,0,66.619,19.571,122.209-0.628c0,0,6.617,14.569,0.783,21.617
						c-5.834,7.048-75.951,16.19-123.851,1.155C54.921,228.245,51.133,221.061,55.78,206.101z"/>
					<path fill="#49291D" d="M53.473,219.448c-0.065,5.908,1.448,8.797,1.448,8.797c47.9,15.035,118.016,5.892,123.851-1.155
						c1.815-2.192,2.424-5.112,2.403-8.095C165.209,225.936,104.706,234.895,53.473,219.448z"/>
				</g>
				<g>
					<path fill="#FFAA00" d="M140.965,236.977c-11.596,3.68-27.472,3.161-44.87,0v-26.781c16.797,2.548,32.305,2.743,44.87,0
						V236.977z"/>
					<path fill="#FFCE00" d="M140.965,238.464c-11.596,3.68-27.472,3.161-44.87,0v-26.781c16.797,2.548,32.305,2.743,44.87,0
						V238.464z"/>
					<path fill="#FFAA00" d="M96.095,233.713v4.751c17.398,3.161,33.274,3.68,44.87,0v-13.809
						C134.76,230.602,122.063,236.071,96.095,233.713z"/>
					<path fill="#563627" d="M136.658,235.041c-9.37,2.639-22.198,2.267-36.256,0v-19.207c13.573,1.827,26.103,1.967,36.256,0
						V235.041z"/>
					<path fill="#49291D" d="M100.402,233.176v1.864c14.058,2.267,26.886,2.639,36.256,0v-1.864
						C127.288,235.816,114.46,235.443,100.402,233.176z"/>
				</g>
			</g>
		</g>
		<g>
			<g>
				<g>
					<circle fill="#FFC3B5" cx="163.296" cy="96.625" r="12.25"/>
					<circle fill="#F2B0A2" cx="163.296" cy="96.625" r="6.211"/>
				</g>
				<g>
					<circle fill="#FFC3B5" cx="70.736" cy="96.625" r="12.25"/>
					<circle fill="#F2B0A2" cx="70.736" cy="96.625" r="6.211"/>
				</g>
				<circle fill="#FFC3B5" cx="116.571" cy="93.476" r="45.835"/>
			</g>
			<g>
				<ellipse fill="#FFFFFF" cx="99.623" cy="91.722" rx="7.957" ry="10.547"/>
				<ellipse fill="#563627" cx="103.516" cy="92.769" rx="2.562" ry="3.396"/>
			</g>
			<g>
				<ellipse fill="#FFFFFF" cx="133.437" cy="91.722" rx="7.956" ry="10.548"/>
				<ellipse fill="#563627" cx="130.996" cy="93.268" rx="2.562" ry="3.397"/>
			</g>
			<ellipse fill="#FF765F" cx="88.183" cy="103.416" rx="4.816" ry="1.864"/>
			<ellipse fill="#FF765F" cx="144.419" cy="103.416" rx="4.816" ry="1.864"/>
			<g>
				<g>
					<g>
						<g>
							<path fill="#F6EEE1" d="M162.738,115.964l0.558-27.976l-13.462,16.493c-7.252,0-13.132,6.304-13.132,14.08
								s5.879,14.08,13.132,14.08c7.252,0,13.131-6.304,13.131-14.08C162.965,117.673,162.884,116.806,162.738,115.964
								L162.738,115.964z"/>
							<path fill="#EADDCA" d="M163.296,87.988l-3.945,25.456c0.146,0.842,0.227,1.709,0.227,2.597
								c0,7.776-5.879,14.08-13.132,14.08c-2.035,0-3.962-0.497-5.682-1.383c2.358,2.416,5.551,3.903,9.07,3.903
								c7.252,0,13.131-6.304,13.131-14.08c0-0.888-0.08-1.755-0.227-2.597L163.296,87.988z"/>
						</g>
						<g>
							<ellipse fill="#F6EEE1" cx="145.557" cy="134.882" rx="11.075" ry="11.875"/>
							<path fill="#EADDCA" d="M152.383,125.534c0.726,1.581,1.136,3.358,1.136,5.239c0,6.559-4.959,11.875-11.075,11.875
								c-2.576,0-4.945-0.945-6.826-2.527c1.806,3.93,5.577,6.636,9.94,6.636c6.117,0,11.075-5.317,11.075-11.875
								C156.633,131.085,154.969,127.708,152.383,125.534z"/>
						</g>
						<g>
							<path fill="#F6EEE1" d="M70.322,115.964l-0.558-27.976l13.463,16.493c7.252,0,13.131,6.304,13.131,14.08
								s-5.879,14.08-13.131,14.08c-7.252,0-13.131-6.304-13.131-14.08C70.096,117.673,70.176,116.806,70.322,115.964
								L70.322,115.964z"/>
							<path fill="#EADDCA" d="M69.764,87.988l3.945,25.456c-0.146,0.842-0.227,1.709-0.227,2.597c0,7.776,5.879,14.08,13.131,14.08
								c2.035,0,3.963-0.497,5.682-1.383c-2.358,2.416-5.55,3.903-9.069,3.903c-7.252,0-13.131-6.304-13.131-14.08
								c0-0.888,0.08-1.755,0.227-2.597L69.764,87.988z"/>
						</g>
						<g>
							<ellipse fill="#F6EEE1" cx="87.503" cy="134.882" rx="11.075" ry="11.875"/>
							<path fill="#EADDCA" d="M80.677,125.534c-0.726,1.581-1.136,3.358-1.136,5.239c0,6.559,4.959,11.875,11.075,11.875
								c2.576,0,4.944-0.945,6.826-2.527c-1.806,3.93-5.577,6.636-9.94,6.636c-6.117,0-11.075-5.317-11.075-11.875
								C76.428,131.085,78.091,127.708,80.677,125.534z"/>
						</g>
						<g>
							<ellipse fill="#F6EEE1" cx="116.968" cy="134.882" rx="31.335" ry="35.037"/>
							<path fill="#EADDCA" d="M116.968,161.735c-16.067,0-29.301-13.524-31.115-30.945c-0.14,1.343-0.22,2.707-0.22,4.092
								c0,19.351,14.029,35.038,31.335,35.038c17.306,0,31.335-15.687,31.335-35.038c0-1.385-0.08-2.749-0.22-4.092
								C146.27,148.211,133.035,161.735,116.968,161.735z"/>
						</g>
					</g>
					<g>
						<ellipse fill="#D56A85" cx="117" cy="101.976" rx="13.751" ry="6.653"/>
						<path fill="#C45575" d="M127.011,97.418c0.654,0.682,1.022,1.442,1.022,2.244c0,2.948-4.94,5.339-11.033,5.339
							c-6.094,0-11.033-2.39-11.033-5.339c0-0.802,0.367-1.561,1.022-2.244c-2.317,1.191-3.739,2.794-3.739,4.558
							c0,3.674,6.156,6.653,13.751,6.653c7.594,0,13.751-2.979,13.751-6.653C130.751,100.211,129.328,98.609,127.011,97.418z"/>
					</g>
					<g>
						<path fill="#DB0515" d="M116.504,130.232c11.119,0,20.133-6.808,20.133-15.206H96.372
							C96.372,123.424,105.385,130.232,116.504,130.232z"/>
						<path fill="#F9060C" d="M133.07,123.664c-3.815-4.523-9.521-7.398-15.901-7.398c-6.724,0-12.699,3.194-16.5,8.144
							c3.686,3.543,9.407,5.822,15.836,5.822C123.374,130.232,129.437,127.631,133.07,123.664z"/>
					</g>
				</g>
				<g>
					<polygon fill="#F6EEE1" points="69.788,75.785 69.764,93.476 80.962,75.785 					"/>
					<polygon fill="#EADDCA" points="69.772,75.785 69.764,93.476 73.531,75.785 					"/>
				</g>
				<g>
					<polygon fill="#F6EEE1" points="163.273,75.785 163.296,93.476 152.098,75.785 					"/>
					<polygon fill="#EADDCA" points="163.288,75.785 163.296,93.476 159.529,75.785 					"/>
				</g>
			</g>
			<g>
				<g>
					<path fill="#E50516" d="M133.07,10.348l62.679,51.697c1.349,0.75,1.827,2.458,1.061,3.8l0,0
						c-0.539,0.944-1.579,1.487-2.662,1.388l-78.662-7.177c-1.539-0.14-2.667-1.512-2.507-3.049l2.494-37.566
						C116.869,2.733,131.33,9.381,133.07,10.348z"/>
					<path fill="#C60A21" d="M195.749,62.045l-10.591-8.735c-1.001,0.883-2.471,2.797-3.089,4.629c-1.309,3.884,0,5.482,0,5.482
						l-12.562,1.564l24.642,2.248c1.083,0.099,2.123-0.444,2.662-1.388C197.576,64.504,197.099,62.796,195.749,62.045z"/>
				</g>
				<g>
					<path fill="#F9060C" d="M163.14,66.161c0.021-0.897,0.017-1.8-0.043-2.712c-1.533-23.599-20.855-58.688-46.938-58.688
						S71.564,40.085,68.64,63.449c-0.114,0.912-0.167,1.814-0.191,2.712H163.14z"/>
					<path fill="#DB0515" d="M163.097,63.449c-0.594-9.151-3.874-20.026-9.175-29.917l-0.135,1.929c0,0,2.847,18.226-45.012,17.849
						c0,0-30.485,0.02-36.041-5.707c-0.067-0.069-0.125-0.149-0.185-0.225c-1.954,5.595-3.287,11.104-3.909,16.072
						c-0.114,0.912-0.167,1.814-0.191,2.712h94.691C163.161,65.264,163.156,64.362,163.097,63.449z"/>
				</g>
				<g>
					<ellipse fill="#EAEAEA" cx="196.498" cy="66.939" rx="10.377" ry="9.903"/>
					<path fill="#E0DFE3" d="M196.498,57.036c-0.248,0-0.494,0.011-0.738,0.028c3.539,1.018,6.118,4.151,6.118,7.861
						c0,4.534-3.852,8.21-8.603,8.21c-2.633,0-4.989-1.13-6.567-2.909c1.42,3.854,5.266,6.617,9.79,6.617
						c5.731,0,10.377-4.434,10.377-9.903C206.875,61.47,202.229,57.036,196.498,57.036z"/>
				</g>
				<g>
					<path fill="#EAEAEA" d="M162.882,76.667H70.127c-1.853,0-3.369-1.516-3.369-3.369V61.291c0-1.853,1.516-3.369,3.369-3.369
						h92.755c1.853,0,3.369,1.516,3.369,3.369v12.007C166.251,75.151,164.735,76.667,162.882,76.667z"/>
					<path fill="#E0DFE3" d="M163.085,57.921h-2.87c-6.264,5.975-28.231,19.727-93.457,11.895v3.685
						c0,1.741,1.425,3.166,3.166,3.166h93.161c1.741,0,3.166-1.425,3.166-3.166V61.087
						C166.251,59.346,164.826,57.921,163.085,57.921z"/>
				</g>
			</g>
			<g>
				<path fill="#F6EEE1" d="M106.859,74.348c0.123-0.545-0.197-1.106-0.761-1.307c-4.484-1.596-8.845-1.997-13.03-1.177
					c-4.664,0.914-8.111,3.182-10.335,5.127c-0.477,0.417-0.515,1.1-0.093,1.565l2.963,3.263c0.466,0.513,1.304,0.558,1.822,0.09
					c1.487-1.346,3.923-3.046,7.211-3.67c2.966-0.564,6.174-0.165,9.578,1.161c0.717,0.279,1.532-0.125,1.69-0.825L106.859,74.348z"
					/>
				<path fill="#EADDCA" d="M105.237,77.207c-3.404-1.326-6.612-1.725-9.578-1.161c-3.289,0.624-5.724,2.324-7.211,3.67
					c-0.518,0.469-1.356,0.423-1.822-0.09l-2.963-3.263c-0.027-0.03-0.035-0.066-0.058-0.097c-0.308,0.244-0.6,0.487-0.871,0.725
					c-0.477,0.417-0.515,1.1-0.093,1.565l2.963,3.263c0.466,0.513,1.304,0.558,1.822,0.09c1.487-1.346,3.923-3.046,7.211-3.67
					c2.966-0.564,6.174-0.165,9.578,1.161c0.716,0.279,1.532-0.125,1.69-0.825l0.313-1.386
					C105.918,77.314,105.568,77.336,105.237,77.207z"/>
			</g>
			<g>
				<path fill="#F6EEE1" d="M125.117,74.348c-0.123-0.545,0.197-1.106,0.761-1.307c4.484-1.596,8.845-1.997,13.03-1.177
					c4.664,0.914,8.111,3.182,10.335,5.127c0.477,0.417,0.515,1.1,0.093,1.565l-2.963,3.263c-0.466,0.513-1.304,0.558-1.822,0.09
					c-1.487-1.346-3.923-3.046-7.211-3.67c-2.966-0.564-6.174-0.165-9.578,1.161c-0.716,0.279-1.532-0.125-1.69-0.825
					L125.117,74.348z"/>
				<path fill="#EADDCA" d="M149.243,76.992c-0.272-0.238-0.563-0.48-0.872-0.725c-0.023,0.031-0.032,0.067-0.059,0.097
					l-2.963,3.263c-0.466,0.513-1.304,0.558-1.822,0.09c-1.487-1.346-3.923-3.046-7.211-3.67c-2.966-0.564-6.174-0.165-9.578,1.161
					c-0.331,0.129-0.681,0.107-0.98-0.018l0.313,1.386c0.158,0.7,0.974,1.104,1.69,0.825c3.404-1.326,6.612-1.725,9.578-1.161
					c3.289,0.624,5.724,2.324,7.211,3.67c0.518,0.469,1.356,0.423,1.822-0.09l2.963-3.263
					C149.758,78.092,149.721,77.409,149.243,76.992z"/>
			</g>
		</g>
		<g>
			<ellipse fill="#F2B0A2" cx="31.433" cy="188.766" rx="4" ry="5.802"/>
			<g>
				<g>
					<g>
						<path fill="#FFAA00" d="M63.282,149.439c0,0,15.922-5.123,18.4-11.722l-5.398-5.536
							C76.285,132.181,63.965,133.647,63.282,149.439z"/>
						<path fill="#FFCE00" d="M63.282,149.439c-1.373-8.583,1.197-15.265,8.87-19.487c5.04-0.828,7.94,1.81,9.53,7.765
							C72.397,137.396,66.896,142.151,63.282,149.439z"/>
					</g>
					<g>
						<path fill="#FFAA00" d="M61.351,149.663c0,0-16.672-1.345-20.594-7.202l3.988-6.624
							C44.746,135.837,57.074,134.445,61.351,149.663z"/>
						<path fill="#FFCE00" d="M61.351,149.663c-0.627-8.669-4.657-14.587-13.093-16.941c-5.096,0.347-7.316,3.578-7.501,9.739
							C49.723,140.024,56.166,143.395,61.351,149.663z"/>
					</g>
					<path fill="#FFAA00" d="M60.823,149.724l2.122-0.246c0.717-0.083,1.232-0.732,1.149-1.45l-0.366-3.154
						c-0.083-0.718-0.732-1.232-1.45-1.149l-2.122,0.246c-0.718,0.083-1.232,0.732-1.149,1.45l0.366,3.153
						C59.456,149.293,60.105,149.808,60.823,149.724z"/>
				</g>
				<g>
					
						<rect x="29.717" y="147.105" transform="matrix(0.9959 -0.0908 0.0908 0.9959 -15.6742 6.5887)" fill="#B88A44" width="69.686" height="56.833"/>
					
						<rect x="29.823" y="149.451" transform="matrix(0.9959 -0.0908 0.0908 0.9959 -15.9935 4.2621)" fill="#A57330" width="18.025" height="56.833"/>
				</g>
				<g>
					
						<rect x="28.881" y="162.509" transform="matrix(0.9959 -0.0908 0.0908 0.9959 -14.8453 6.4749)" opacity="0.21" width="69.686" height="7.697"/>
					<g>
						
							<rect x="28.76" y="161.184" transform="matrix(0.9959 -0.0908 0.0908 0.9959 -14.7259 6.4587)" fill="#FFCE00" width="69.686" height="7.697"/>
						
							<rect x="28.867" y="163.528" transform="matrix(0.9959 -0.0908 0.0908 0.9959 -15.0456 4.1345)" fill="#FFAA00" width="18.075" height="7.697"/>
						
							<rect x="69.92" y="146.15" transform="matrix(0.9959 -0.0908 0.0908 0.9959 -15.5445 7.523)" opacity="0.21" width="9.949" height="56.846"/>
						
							<rect x="71.068" y="146.045" transform="matrix(0.9959 -0.0908 0.0908 0.9959 -15.5319 7.6277)" fill="#FFCE00" width="9.949" height="56.846"/>
						
							<rect x="35.879" y="149.517" transform="matrix(0.9959 -0.0908 0.0908 0.9959 -16.0019 4.1904)" opacity="0.21" width="4.338" height="56.846"/>
						
							<rect x="36.666" y="149.438" transform="matrix(0.9959 -0.0908 0.0908 0.9959 -15.9915 4.2616)" fill="#FFAA00" width="4.338" height="56.846"/>
					</g>
				</g>
			</g>
			<g>
				<path fill="#FFC3B5" d="M27.841,192.17c0,0,3.012-4.022,7.213,2.499c4.201,6.522,4.87,8.326,11.559,9.301
					c6.689,0.975,2.778,11.885-8.273,11.052C27.83,214.23,18.965,200.893,27.841,192.17z"/>
				<g>
					<path fill="#F2B0A2" d="M27.434,203.956c-0.079,0.001-0.161-0.009-0.241-0.03c-0.517-0.132-0.829-0.659-0.697-1.177
						c1.836-7.175,7.633-9.406,7.878-9.497c0.5-0.187,1.057,0.068,1.244,0.569c0.186,0.5-0.068,1.055-0.567,1.243
						c-0.214,0.081-5.106,2.006-6.682,8.165C28.258,203.666,27.864,203.956,27.434,203.956z"/>
					<path fill="#F2B0A2" d="M31.073,208.307c-0.369,0-0.72-0.212-0.882-0.569c-0.22-0.487-0.004-1.059,0.483-1.279
						c3.456-1.56,6.862-7.184,6.896-7.241c0.275-0.457,0.868-0.607,1.327-0.331c0.458,0.275,0.606,0.868,0.331,1.326
						c-0.151,0.252-3.749,6.199-7.759,8.009C31.341,208.279,31.205,208.307,31.073,208.307z"/>
					<path fill="#F2B0A2" d="M37.466,212.053c-0.437,0-0.833-0.298-0.94-0.742c-0.125-0.519,0.195-1.041,0.715-1.166
						c5.396-1.293,6.587-6.643,6.598-6.697c0.111-0.522,0.62-0.855,1.146-0.746c0.522,0.111,0.856,0.624,0.746,1.146
						c-0.057,0.269-1.468,6.602-8.039,8.177C37.616,212.045,37.541,212.053,37.466,212.053z"/>
				</g>
			</g>
		</g>
	</g>
</g>
</svg>
