<?xml version="1.0" encoding="utf-8"?>
<!-- Generator: Adobe Illustrator 17.0.0, SVG Export Plug-In . SVG Version: 6.00 Build 0)  -->
<!DOCTYPE svg PUBLIC "-//W3C//DTD SVG 1.1//EN" "http://www.w3.org/Graphics/SVG/1.1/DTD/svg11.dtd">
<svg version="1.1" id="Layer_1" xmlns="http://www.w3.org/2000/svg" xmlns:xlink="http://www.w3.org/1999/xlink" x="0px" y="0px"
	 width="226.333px" height="347px" viewBox="0 0 226.333 347" enable-background="new 0 0 226.333 347" xml:space="preserve">
<g>
	<ellipse opacity="0.1" fill="#231F20" cx="113.758" cy="331.102" rx="108.929" ry="12.069"/>
	<g>
		<g>
			<g>
				<g>
					<path fill="#FFC3B5" d="M177.689,94.735c-1.472-1.643-8.688-15.764-3.114-17.974c3.741-1.483,4.839,3.415,4.839,3.415
						s-2.643-20.244,12.057-21.844c14.699-1.601,18.108,23.798,7.965,38.953L177.689,94.735z"/>
					<g>
						<path fill="#F2B0A2" d="M188.603,87.871c-0.461,0.059-0.904-0.231-1.026-0.691c-0.755-2.845-1.953-4.64-3.563-5.335
							c-1.928-0.834-3.846,0.182-3.865,0.192c-0.454,0.246-1.026,0.077-1.273-0.379c-0.247-0.456-0.077-1.027,0.38-1.274
							c0.109-0.061,2.746-1.456,5.504-0.265c2.165,0.936,3.723,3.149,4.633,6.578c0.133,0.502-0.165,1.016-0.668,1.149
							C188.685,87.858,188.644,87.866,188.603,87.871z"/>
						<path fill="#F2B0A2" d="M185.756,72.815c-0.057,0.007-0.116,0.01-0.177,0.006c-0.517-0.032-0.912-0.477-0.881-0.995
							l0.785-12.911c0.031-0.518,0.467-0.914,0.995-0.881c0.517,0.032,0.912,0.477,0.881,0.995l-0.785,12.911
							C186.546,72.398,186.194,72.76,185.756,72.815z"/>
						<path fill="#F2B0A2" d="M192.458,72.269c-0.078,0.01-0.158,0.01-0.24-0.001c-0.515-0.066-0.878-0.537-0.812-1.051
							l1.711-13.336c0.067-0.516,0.536-0.879,1.052-0.813c0.514,0.066,0.878,0.537,0.812,1.052l-1.711,13.336
							C193.215,71.889,192.873,72.216,192.458,72.269z"/>
						<path fill="#F2B0A2" d="M198.632,73.647c-0.109,0.014-0.223,0.008-0.336-0.019c-0.506-0.12-0.817-0.627-0.697-1.132
							l2.467-10.356c0.12-0.505,0.625-0.818,1.131-0.696c0.506,0.12,0.817,0.627,0.697,1.132l-2.467,10.356
							C199.334,73.323,199.009,73.599,198.632,73.647z"/>
						<path fill="#F2B0A2" d="M201.865,76.708c-0.28,0.036-0.573-0.055-0.786-0.27c-5.543-5.588-18.128-2.973-18.253-2.945
							c-0.525,0.109-1.008-0.215-1.116-0.722c-0.109-0.507,0.214-1.007,0.721-1.116c0.557-0.119,13.713-2.86,19.982,3.459
							c0.366,0.368,0.363,0.963-0.005,1.329C202.255,76.595,202.063,76.683,201.865,76.708z"/>
					</g>
				</g>
				<g>
					<path fill="#F9060C" d="M149.109,165.387c-1.704,0.217-2.835,0.267-3.188,0.278l-0.728-23.481l-0.115,0.005
						c0.074-0.004,7.353-0.428,14.421-4.982c8.999-5.799,13.905-15.938,14.579-30.135c0.307-6.48,5.809-11.487,12.29-11.175
						c6.48,0.308,11.484,5.81,11.176,12.29c-1.352,28.467-15.199,42.659-26.576,49.553
						C162.188,163.058,153.631,164.811,149.109,165.387z"/>
					<path fill="#DB0515" d="M186.367,95.898c-3.613-0.174-6.919,1.308-9.193,3.774l4.02,4.068c0,0,14.354,9.27,4.032,31.631
						c-8.691,18.826-28.292,9.198-34.272,5.683c-3.401,0.987-5.834,1.133-5.877,1.135l0.115-0.005l0.728,23.481
						c0.354-0.011,1.484-0.061,3.188-0.278c4.522-0.576,13.08-2.329,21.857-7.647c11.377-6.893,25.224-21.086,26.576-49.553
						C197.85,101.708,192.846,96.205,186.367,95.898z"/>
				</g>
				<g>
					<path fill="#EAEAEA" d="M198.252,113.325l-24.921-2.904c-1.733-0.202-2.986-1.785-2.784-3.519l1.328-11.398
						c0.202-1.733,1.785-2.986,3.519-2.784l24.921,2.904c1.733,0.202,2.986,1.785,2.784,3.519l-1.328,11.398
						C201.569,112.274,199.985,113.527,198.252,113.325z"/>
					<path fill="#E0DFE3" d="M200.505,95.646l-0.63-0.073c0.382,5.235-1.705,16.577-29.126,9.593l-0.224,1.927
						c-0.19,1.629,0.988,3.117,2.616,3.306l25.301,2.948c1.629,0.19,3.117-0.988,3.306-2.616l1.372-11.778
						C203.311,97.324,202.134,95.836,200.505,95.646z"/>
				</g>
			</g>
			<g>
				<g>
					<path fill="#FFC3B5" d="M38.679,94.735c1.472-1.643,8.688-15.764,3.114-17.974c-3.741-1.483-4.839,3.415-4.839,3.415
						s2.643-20.244-12.056-21.844C10.198,56.731,6.79,82.13,16.933,97.285L38.679,94.735z"/>
					<g>
						<path fill="#F2B0A2" d="M27.765,87.871c0.461,0.059,0.904-0.231,1.026-0.691c0.755-2.845,1.953-4.64,3.562-5.335
							c1.928-0.834,3.846,0.182,3.865,0.192c0.454,0.246,1.026,0.077,1.273-0.379c0.247-0.456,0.077-1.027-0.38-1.274
							c-0.109-0.061-2.746-1.456-5.504-0.265c-2.165,0.936-3.723,3.149-4.633,6.578c-0.133,0.502,0.166,1.016,0.668,1.149
							C27.683,87.858,27.724,87.866,27.765,87.871z"/>
						<path fill="#F2B0A2" d="M30.613,72.815c0.057,0.007,0.116,0.01,0.177,0.006c0.518-0.032,0.912-0.477,0.881-0.995
							l-0.785-12.911c-0.031-0.518-0.467-0.914-0.995-0.881c-0.517,0.032-0.912,0.477-0.881,0.995l0.785,12.911
							C29.822,72.398,30.174,72.76,30.613,72.815z"/>
						<path fill="#F2B0A2" d="M23.91,72.269c0.078,0.01,0.158,0.01,0.24-0.001c0.514-0.066,0.878-0.537,0.812-1.051L23.25,57.881
							c-0.067-0.516-0.535-0.879-1.052-0.813c-0.514,0.066-0.878,0.537-0.812,1.052l1.711,13.336
							C23.153,71.889,23.495,72.216,23.91,72.269z"/>
						<path fill="#F2B0A2" d="M17.736,73.647c0.109,0.014,0.223,0.008,0.336-0.019c0.506-0.12,0.817-0.627,0.697-1.132L16.301,62.14
							c-0.12-0.505-0.625-0.818-1.131-0.696c-0.506,0.12-0.817,0.627-0.697,1.132l2.467,10.356
							C17.034,73.323,17.359,73.599,17.736,73.647z"/>
						<path fill="#F2B0A2" d="M14.503,76.708c0.28,0.036,0.573-0.055,0.786-0.27c5.543-5.588,18.128-2.973,18.253-2.945
							c0.524,0.109,1.008-0.215,1.116-0.722c0.109-0.507-0.214-1.007-0.721-1.116c-0.557-0.119-13.713-2.86-19.981,3.459
							c-0.366,0.368-0.363,0.963,0.005,1.329C14.113,76.595,14.305,76.683,14.503,76.708z"/>
					</g>
				</g>
				<g>
					<path fill="#F9060C" d="M67.26,165.387c1.704,0.217,2.835,0.267,3.188,0.278l0.728-23.481l0.115,0.005
						c-0.074-0.004-7.353-0.428-14.421-4.982c-8.999-5.799-13.905-15.938-14.579-30.135c-0.307-6.48-5.809-11.487-12.29-11.175
						c-6.48,0.308-11.484,5.81-11.175,12.29c1.352,28.467,15.199,42.659,26.576,49.553C54.18,163.058,62.737,164.811,67.26,165.387z
						"/>
					<path fill="#DB0515" d="M30.001,95.898c3.613-0.174,6.919,1.308,9.193,3.774l-4.02,4.068c0,0-14.354,9.27-4.032,31.631
						c8.691,18.826,28.292,9.198,34.272,5.683c3.401,0.987,5.834,1.133,5.877,1.135l-0.115-0.005l-0.728,23.481
						c-0.354-0.011-1.484-0.061-3.188-0.278c-4.522-0.576-13.08-2.329-21.857-7.647c-11.377-6.893-25.224-21.086-26.576-49.553
						C18.518,101.708,23.522,96.205,30.001,95.898z"/>
				</g>
				<g>
					<path fill="#EAEAEA" d="M18.116,113.325l24.921-2.904c1.733-0.202,2.986-1.785,2.784-3.519l-1.328-11.398
						c-0.202-1.733-1.785-2.986-3.519-2.784l-24.921,2.904c-1.733,0.202-2.986,1.785-2.784,3.519l1.328,11.398
						C14.799,112.274,16.383,113.527,18.116,113.325z"/>
					<path fill="#E0DFE3" d="M15.863,95.646l0.63-0.073c-0.382,5.235,1.705,16.577,29.126,9.593l0.224,1.927
						c0.19,1.629-0.987,3.117-2.616,3.306l-25.301,2.948c-1.629,0.19-3.117-0.988-3.306-2.616l-1.373-11.778
						C13.057,97.324,14.234,95.836,15.863,95.646z"/>
				</g>
			</g>
			<g>
				<path fill="#F9060C" d="M82.065,126.061c0,0-50.459,64.414-31.079,122.943c0,0,63.675,20.317,117.06-1.981
					c0,0,16.735-56.288-33.654-120.962H82.065z"/>
				<path fill="#DB0515" d="M134.392,126.061h-2.863c2.68,1.621,3.927,3.498,3.927,3.498s69.503,115.087-87.216,108.901
					c0.685,3.526,1.587,7.045,2.746,10.544c0,0,63.675,20.317,117.06-1.981C168.046,247.022,184.781,190.734,134.392,126.061z"/>
				<rect x="98.159" y="126.061" fill="#EAEAEA" width="21.249" height="130.89"/>
				<path fill="#D9DEE4" d="M119.409,235.547c0,0-1.663,13.777-16.046,15.267c0,0,12.488,1.961,16.046,0.238V235.547z"/>
				<g>
					<path fill="#EAEAEA" d="M47.488,241.422c0,0,69.53,20.199,123.045,0c0,0,3.183,14.569-2.433,21.617
						c-5.616,7.048-72.452,16.444-118.563,1.409C49.537,264.448,43.015,256.383,47.488,241.422z"/>
					<path fill="#D9DEE4" d="M170.533,241.422c-2.223,0.839-4.476,1.602-6.749,2.307c-4.953,12.048-26.468,31.5-117.65,11.246
						c0.773,6.213,3.403,9.474,3.403,9.474c46.111,15.035,112.947,5.638,118.563-1.409
						C173.716,255.991,170.533,241.422,170.533,241.422z"/>
				</g>
				<g>
					<g>
						<path fill="#563627" d="M47.413,204.686c0,0,66.619,19.571,122.209-0.628c0,0,6.617,14.569,0.783,21.617
							c-5.834,7.048-75.951,16.19-123.851,1.155C46.554,226.831,42.766,219.647,47.413,204.686z"/>
						<path fill="#49291D" d="M45.106,218.034c-0.065,5.908,1.448,8.797,1.448,8.797c47.9,15.035,118.016,5.892,123.85-1.155
							c1.815-2.192,2.424-5.112,2.403-8.095C156.842,224.522,96.339,233.481,45.106,218.034z"/>
					</g>
					<g>
						<path fill="#FFAA00" d="M132.598,235.562c-11.596,3.68-27.472,3.161-44.87,0v-26.781c16.797,2.548,32.305,2.743,44.87,0
							V235.562z"/>
						<path fill="#FFCE00" d="M132.598,237.05c-11.596,3.68-27.472,3.161-44.87,0v-26.781c16.797,2.548,32.305,2.743,44.87,0V237.05
							z"/>
						<path fill="#FFAA00" d="M87.728,232.754v4.752c17.398,3.161,33.274,3.68,44.87,0v-13.809
							C126.393,229.643,113.695,235.111,87.728,232.754z"/>
						<path fill="#563627" d="M128.291,233.626c-9.37,2.639-22.198,2.267-36.256,0v-19.207c13.573,1.827,26.103,1.967,36.256,0
							V233.626z"/>
						<path fill="#49291D" d="M92.035,231.762v1.864c14.058,2.267,26.886,2.639,36.256,0v-1.864
							C118.921,234.401,106.093,234.029,92.035,231.762z"/>
					</g>
				</g>
			</g>
			<g>
				<g>
					<g>
						<circle fill="#FFC3B5" cx="154.929" cy="95.211" r="12.25"/>
						<circle fill="#F2B0A2" cx="154.929" cy="95.211" r="6.211"/>
					</g>
					<g>
						<circle fill="#FFC3B5" cx="62.369" cy="95.211" r="12.25"/>
						<circle fill="#F2B0A2" cx="62.369" cy="95.211" r="6.211"/>
					</g>
					<circle fill="#FFC3B5" cx="108.204" cy="92.062" r="45.835"/>
				</g>
				<g>
					<ellipse fill="#FFFFFF" cx="91.298" cy="90.308" rx="7.957" ry="10.547"/>
					<path fill="#563627" d="M96.726,93.942c-0.408,0-0.785-0.269-0.902-0.681c-1.109-3.87-2.053-3.936-2.092-3.937
						c-0.003,0-0.005-0.001-0.008-0.001c-0.708,0-1.944,2.095-2.58,3.979c-0.166,0.491-0.7,0.756-1.19,0.59
						c-0.492-0.166-0.756-0.698-0.59-1.19c0.417-1.239,1.958-5.258,4.363-5.258c0.016,0,0.033,0,0.049,0.001
						c2.11,0.048,3.211,3.047,3.855,5.298c0.143,0.499-0.145,1.019-0.644,1.162C96.899,93.93,96.812,93.942,96.726,93.942z"/>
				</g>
				<g>
					<ellipse fill="#FFFFFF" cx="125.111" cy="90.308" rx="7.956" ry="10.548"/>
					<path fill="#563627" d="M121.049,93.942c0.408,0,0.785-0.269,0.902-0.681c1.109-3.87,2.053-3.936,2.092-3.937
						c0.003,0,0.006-0.001,0.008-0.001c0.708,0,1.944,2.095,2.58,3.979c0.166,0.491,0.7,0.756,1.19,0.59
						c0.492-0.166,0.756-0.698,0.59-1.19c-0.417-1.239-1.958-5.258-4.363-5.258c-0.016,0-0.033,0-0.049,0.001
						c-2.11,0.048-3.211,3.047-3.855,5.298c-0.143,0.499,0.145,1.019,0.644,1.162C120.875,93.93,120.963,93.942,121.049,93.942z"/>
				</g>
				<ellipse fill="#FF765F" cx="79.816" cy="102.002" rx="4.816" ry="1.864"/>
				<ellipse fill="#FF765F" cx="136.052" cy="102.002" rx="4.816" ry="1.864"/>
				<g>
					<g>
						<g>
							<g>
								<path fill="#F6EEE1" d="M154.371,114.55l0.558-27.976l-13.463,16.493c-7.252,0-13.132,6.304-13.132,14.08
									s5.879,14.08,13.132,14.08c7.252,0,13.132-6.304,13.132-14.08C154.598,116.259,154.517,115.391,154.371,114.55
									L154.371,114.55z"/>
								<path fill="#EADDCA" d="M154.929,86.574l-3.945,25.456c0.146,0.842,0.227,1.709,0.227,2.597
									c0,7.776-5.879,14.08-13.131,14.08c-2.035,0-3.963-0.497-5.682-1.383c2.358,2.416,5.551,3.903,9.069,3.903
									c7.252,0,13.132-6.304,13.132-14.08c0-0.887-0.08-1.755-0.227-2.596L154.929,86.574z"/>
							</g>
							<g>
								<ellipse fill="#F6EEE1" cx="137.19" cy="133.468" rx="11.075" ry="11.875"/>
								<path fill="#EADDCA" d="M144.016,124.119c0.726,1.581,1.136,3.358,1.136,5.239c0,6.559-4.959,11.875-11.075,11.875
									c-2.576,0-4.945-0.945-6.826-2.527c1.805,3.93,5.577,6.636,9.94,6.636c6.117,0,11.075-5.317,11.075-11.875
									C148.265,129.671,146.602,126.293,144.016,124.119z"/>
							</g>
							<g>
								<path fill="#F6EEE1" d="M61.955,114.55l-0.558-27.976l13.463,16.493c7.252,0,13.131,6.304,13.131,14.08
									s-5.879,14.08-13.131,14.08c-7.252,0-13.131-6.304-13.131-14.08C61.728,116.259,61.809,115.391,61.955,114.55L61.955,114.55
									z"/>
								<path fill="#EADDCA" d="M61.397,86.574l3.945,25.456c-0.147,0.842-0.227,1.709-0.227,2.597
									c0,7.776,5.879,14.08,13.132,14.08c2.035,0,3.963-0.497,5.682-1.383c-2.357,2.416-5.55,3.903-9.069,3.903
									c-7.252,0-13.131-6.304-13.131-14.08c0-0.887,0.08-1.755,0.227-2.596L61.397,86.574z"/>
							</g>
							<g>
								<ellipse fill="#F6EEE1" cx="79.136" cy="133.468" rx="11.075" ry="11.875"/>
								<path fill="#EADDCA" d="M72.31,124.119c-0.726,1.581-1.136,3.358-1.136,5.239c0,6.559,4.959,11.875,11.075,11.875
									c2.576,0,4.945-0.945,6.826-2.527c-1.806,3.93-5.577,6.636-9.94,6.636c-6.117,0-11.075-5.317-11.075-11.875
									C68.061,129.671,69.724,126.293,72.31,124.119z"/>
							</g>
							<g>
								<ellipse fill="#F6EEE1" cx="108.601" cy="133.468" rx="31.335" ry="35.037"/>
								<path fill="#EADDCA" d="M108.601,160.32c-16.067,0-29.301-13.524-31.115-30.945c-0.14,1.343-0.22,2.707-0.22,4.092
									c0,19.351,14.029,35.038,31.335,35.038c17.306,0,31.335-15.687,31.335-35.038c0-1.385-0.08-2.749-0.22-4.092
									C137.902,146.796,124.668,160.32,108.601,160.32z"/>
							</g>
						</g>
						<g>
							<ellipse fill="#D56A85" cx="108.633" cy="100.562" rx="13.751" ry="6.653"/>
							<path fill="#C45575" d="M118.644,96.003c0.654,0.682,1.022,1.442,1.022,2.244c0,2.948-4.94,5.339-11.033,5.339
								c-6.094,0-11.033-2.39-11.033-5.339c0-0.802,0.368-1.561,1.022-2.244c-2.317,1.191-3.739,2.794-3.739,4.558
								c0,3.674,6.156,6.653,13.751,6.653c7.594,0,13.751-2.979,13.751-6.653C122.384,98.797,120.961,97.194,118.644,96.003z"/>
						</g>
						<g>
							<ellipse fill="#DB0515" cx="108.784" cy="124.63" rx="9.365" ry="13.267"/>
							<path fill="#F9060C" d="M99.59,122.141c-0.108,0.807-0.171,1.637-0.171,2.489c0,7.327,4.193,13.267,9.365,13.267
								c5.172,0,9.364-5.94,9.364-13.267c0-0.852-0.062-1.682-0.171-2.489c-2.581-1.835-5.752-2.931-9.194-2.931
								C105.342,119.21,102.171,120.306,99.59,122.141z"/>
						</g>
					</g>
					<g>
						<polygon fill="#F6EEE1" points="61.42,74.37 61.397,92.062 72.595,74.37 						"/>
						<polygon fill="#EADDCA" points="61.405,74.37 61.397,92.062 65.163,74.37 						"/>
					</g>
					<g>
						<polygon fill="#F6EEE1" points="154.906,74.37 154.929,92.062 143.731,74.37 						"/>
						<polygon fill="#EADDCA" points="154.921,74.37 154.929,92.062 151.162,74.37 						"/>
					</g>
				</g>
				<g>
					<g>
						<path fill="#E50516" d="M91.474,8.934L28.795,60.631c-1.349,0.75-1.826,2.458-1.061,3.799h0
							c0.539,0.944,1.579,1.487,2.662,1.388l78.662-7.177c1.539-0.14,2.667-1.512,2.507-3.049l-2.494-37.566
							C107.675,1.318,93.214,7.966,91.474,8.934z"/>
						<path fill="#C60A21" d="M28.795,60.631l10.591-8.735c1.001,0.883,2.472,2.797,3.089,4.629c1.309,3.884,0,5.482,0,5.482
							l12.562,1.564l-24.642,2.248c-1.083,0.099-2.123-0.444-2.662-1.388C26.968,63.089,27.445,61.381,28.795,60.631z"/>
					</g>
					<g>
						<path fill="#F9060C" d="M61.404,64.747c-0.021-0.897-0.017-1.8,0.043-2.712C62.98,38.436,82.302,3.346,108.385,3.346
							s44.595,35.324,47.519,58.688c0.114,0.912,0.167,1.814,0.191,2.712H61.404z"/>
						<path fill="#DB0515" d="M61.447,62.035c0.595-9.151,3.874-20.026,9.175-29.917l0.135,1.929c0,0-2.847,18.226,45.012,17.849
							c0,0,30.485,0.02,36.041-5.707c0.067-0.069,0.125-0.149,0.185-0.225c1.954,5.595,3.287,11.104,3.909,16.072
							c0.114,0.912,0.167,1.814,0.191,2.712H61.404C61.384,63.849,61.388,62.947,61.447,62.035z"/>
					</g>
					<g>
						<ellipse fill="#EAEAEA" cx="28.046" cy="65.525" rx="10.377" ry="9.903"/>
						<path fill="#E0DFE3" d="M28.046,55.622c0.248,0,0.494,0.011,0.738,0.028c-3.539,1.018-6.118,4.151-6.118,7.861
							c0,4.534,3.851,8.21,8.603,8.21c2.633,0,4.989-1.13,6.567-2.909c-1.42,3.854-5.266,6.617-9.79,6.617
							c-5.731,0-10.377-4.434-10.377-9.903C17.669,60.055,22.315,55.622,28.046,55.622z"/>
					</g>
					<g>
						<path fill="#EAEAEA" d="M61.662,75.252h92.755c1.853,0,3.369-1.516,3.369-3.369V59.876c0-1.853-1.516-3.369-3.369-3.369
							H61.662c-1.853,0-3.369,1.516-3.369,3.369v12.007C58.293,73.736,59.809,75.252,61.662,75.252z"/>
						<path fill="#E0DFE3" d="M61.459,56.507h2.87c6.264,5.975,28.231,19.727,93.457,11.895v3.685c0,1.741-1.425,3.166-3.166,3.166
							H61.459c-1.741,0-3.166-1.425-3.166-3.166V59.673C58.293,57.932,59.718,56.507,61.459,56.507z"/>
					</g>
				</g>
				<g>
					<path fill="#F6EEE1" d="M98.492,72.934c0.123-0.545-0.197-1.106-0.761-1.307c-4.484-1.596-8.845-1.997-13.03-1.177
						c-4.664,0.914-8.111,3.182-10.335,5.127c-0.477,0.417-0.515,1.1-0.093,1.565l2.963,3.263c0.466,0.513,1.304,0.558,1.822,0.09
						c1.487-1.346,3.923-3.046,7.211-3.67c2.966-0.564,6.174-0.165,9.578,1.161c0.717,0.279,1.532-0.125,1.69-0.825L98.492,72.934z"
						/>
					<path fill="#EADDCA" d="M96.869,75.793c-3.404-1.326-6.612-1.725-9.578-1.161c-3.289,0.624-5.724,2.324-7.211,3.67
						c-0.518,0.469-1.356,0.423-1.822-0.09l-2.963-3.263c-0.027-0.03-0.035-0.066-0.058-0.097c-0.308,0.244-0.6,0.487-0.871,0.725
						c-0.477,0.417-0.515,1.1-0.093,1.565l2.963,3.263c0.466,0.513,1.304,0.558,1.822,0.09c1.487-1.346,3.923-3.046,7.211-3.67
						c2.966-0.564,6.174-0.165,9.578,1.161c0.717,0.279,1.532-0.125,1.69-0.825l0.313-1.386
						C97.551,75.9,97.201,75.922,96.869,75.793z"/>
				</g>
				<g>
					<path fill="#F6EEE1" d="M116.75,72.934c-0.123-0.545,0.197-1.106,0.761-1.307c4.484-1.596,8.845-1.997,13.03-1.177
						c4.664,0.914,8.111,3.182,10.335,5.127c0.477,0.417,0.515,1.1,0.093,1.565l-2.963,3.263c-0.466,0.513-1.304,0.558-1.822,0.09
						c-1.487-1.346-3.923-3.046-7.211-3.67c-2.966-0.564-6.174-0.165-9.578,1.161c-0.717,0.279-1.532-0.125-1.69-0.825
						L116.75,72.934z"/>
					<path fill="#EADDCA" d="M140.876,75.577c-0.272-0.238-0.563-0.48-0.871-0.725c-0.023,0.031-0.032,0.067-0.059,0.097
						l-2.963,3.263c-0.466,0.513-1.304,0.558-1.822,0.09c-1.487-1.346-3.923-3.046-7.211-3.67c-2.966-0.564-6.174-0.165-9.578,1.161
						c-0.331,0.129-0.681,0.107-0.98-0.017l0.313,1.386c0.158,0.7,0.974,1.104,1.69,0.825c3.404-1.326,6.612-1.725,9.578-1.161
						c3.289,0.624,5.724,2.324,7.211,3.67c0.518,0.469,1.356,0.423,1.822-0.09l2.963-3.263
						C141.391,76.677,141.354,75.994,140.876,75.577z"/>
				</g>
			</g>
		</g>
		<g>
			<g>
				<rect x="44.176" y="262.837" fill="#F6EEE1" width="128.632" height="64.716"/>
				<g>
					<rect x="41.087" y="279.754" fill="#EADDCA" width="40.523" height="19.066"/>
					<rect x="88.484" y="279.754" fill="#EADDCA" width="40.523" height="19.066"/>
					<rect x="135.88" y="279.754" fill="#EADDCA" width="40.523" height="19.066"/>
					<rect x="41.528" y="303.734" fill="#EADDCA" width="19.066" height="19.066"/>
					<rect x="160.963" y="303.734" fill="#EADDCA" width="15.44" height="19.066"/>
					<rect x="67.466" y="303.734" fill="#EADDCA" width="40.523" height="19.066"/>
					<rect x="114.862" y="303.734" fill="#EADDCA" width="40.524" height="19.066"/>
				</g>
			</g>
			<g>
				<g>
					<path fill="#563627" d="M175.938,276.134H41.328c-2.407,0-4.376-1.969-4.376-4.376v-29.614c0-2.407,1.969-4.376,4.376-4.376
						h134.61c2.407,0,4.376,1.969,4.376,4.376v29.614C180.314,274.165,178.345,276.134,175.938,276.134z"/>
					<path fill="#49291D" d="M176.202,237.768h-5.735c0.926,9.368-3.892,44.372-133.516,26.174v8.08
						c0,2.262,1.851,4.112,4.112,4.112h135.138c2.262,0,4.112-1.851,4.112-4.112V241.88
						C180.314,239.618,178.464,237.768,176.202,237.768z"/>
				</g>
				<g>
					<path fill="#D9DEE4" d="M176.202,240.771H41.064c-2.262,0-4.112,1.85-4.112,4.112v13.741c0,0,2.413,5.403,4.762,0
						c2.349-5.403,0.518-10.719,4.84-10.41c4.322,0.309,2.442,11.82,8.55,10.645c6.108-1.175,3.759-8.692,7.752-8.927
						c3.994-0.235,4.229,4.464,7.283,2.584c3.054-1.879,6.693-10.98,12.216-4.698c6.108,6.947,12.821,11.114,14.33,6.947
						c1.41-3.893,6.639-7.974,9.397-5.302c2.758,2.671,4.464,7.987,7.518,7.283s3.994-2.819,5.403-6.343
						c1.41-3.524,6.427-6.428,11.042-2.575c4.343,3.626,7.173,8.514,9.891,3.934c3.029-5.104,7.493-9.318,10.547-5.104
						c3.054,4.214,0.705,11.497,5.638,10.792c4.933-0.705,1.645-5.638,2.349-8.222c0.705-2.584,3.054-4.464,5.638-1.175
						c2.584,3.289,4.464,4.933,7.048,2.819c2.584-2.114,4.229-5.873,5.638-0.47s-2.121,11.544,3.52,12.35v-17.869
						C180.314,242.621,178.464,240.771,176.202,240.771z"/>
					<path fill="#EAEAEA" d="M176.202,237.768H41.064c-2.262,0-4.112,1.851-4.112,4.112v13.741c0,0,2.413,5.403,4.762,0
						c2.349-5.403,0.518-10.719,4.84-10.41c4.322,0.309,2.442,11.82,8.55,10.645c6.108-1.175,3.759-8.692,7.752-8.927
						c3.994-0.235,4.229,4.464,7.283,2.584c3.054-1.879,6.693-10.98,12.216-4.699c6.108,6.947,12.821,11.115,14.33,6.947
						c1.41-3.893,6.639-7.974,9.397-5.302c2.758,2.671,4.464,7.987,7.518,7.283c3.054-0.705,3.994-2.819,5.403-6.343
						c1.41-3.524,6.427-6.428,11.042-2.575c4.343,3.626,7.173,8.514,9.891,3.934c3.029-5.104,7.493-9.318,10.547-5.104
						s0.705,11.497,5.638,10.792c4.933-0.705,1.645-5.638,2.349-8.222c0.705-2.584,3.054-4.464,5.638-1.175
						c2.584,3.289,4.464,4.933,7.048,2.819s4.229-5.873,5.638-0.47s-2.121,11.544,3.52,12.35V241.88
						C180.314,239.618,178.464,237.768,176.202,237.768z"/>
				</g>
			</g>
		</g>
	</g>
</g>
</svg>
